<svg height="512pt" viewBox="0 0 512 512.00001" width="512pt" xmlns="http://www.w3.org/2000/svg"><path d="m511.894531 208.269531v277.695313c-.03125 9.574218-7.785156 17.328125-17.355469 17.355468h-104.136718c-.101563-76.640624-62.207032-138.746093-138.847656-138.847656v-208.269531c.027343-9.574219 7.78125-17.328125 17.355468-17.355469h173.558594zm0 0" fill="#3d324c"/><g fill="#a5a5a4"><path d="m459.824219 208.269531h52.070312l-69.425781-69.421875v52.066406c0 9.585938 7.769531 17.355469 17.355469 17.355469zm0 0"/><path d="m294.945312 173.558594c0 4.792968-3.886718 8.679687-8.679687 8.679687s-8.675781-3.886719-8.675781-8.679687c0-4.792969 3.882812-8.675782 8.675781-8.675782s8.679687 3.882813 8.679687 8.675782zm0 0"/><path d="m329.65625 173.558594c0 4.792968-3.886719 8.679687-8.679688 8.679687-4.792968 0-8.675781-3.886719-8.675781-8.679687 0-4.792969 3.882813-8.675782 8.675781-8.675782 4.792969 0 8.679688 3.882813 8.679688 8.675782zm0 0"/><path d="m364.367188 173.558594c0 4.792968-3.882813 8.679687-8.675782 8.679687-4.792968 0-8.679687-3.886719-8.679687-8.679687 0-4.792969 3.886719-8.675782 8.679687-8.675782 4.792969 0 8.675782 3.882813 8.675782 8.675782zm0 0"/><path d="m17.25 86.78125c0 4.792969 3.882812 8.675781 8.675781 8.675781s8.679688-3.882812 8.679688-8.675781v-57.15625l2.542969 2.542969c3.40625 3.289062 8.816406 3.242187 12.164062-.105469s3.394531-8.757812.105469-12.164062l-17.355469-17.355469c-3.386719-3.386719-8.882812-3.386719-12.269531 0l-17.355469 17.355469c-3.289062 3.40625-3.242188 8.816406.105469 12.164062 3.347656 3.347656 8.757812 3.394531 12.164062.105469l2.542969-2.542969zm0 0"/><path d="m34.605469 121.492188c0-4.792969-3.886719-8.679688-8.679688-8.679688s-8.675781 3.886719-8.675781 8.679688v17.355468c0 4.792969 3.882812 8.679688 8.675781 8.679688s8.679688-3.886719 8.679688-8.679688zm0 0"/><path d="m66.773438 367.015625c-3.386719-3.386719-8.882813-3.386719-12.269532 0l-17.355468 17.359375c-3.289063 3.402344-3.242188 8.816406.105468 12.164062 3.347656 3.347657 8.757813 3.394532 12.164063.105469l2.542969-2.542969v22.441407c0 4.792969 3.886718 8.675781 8.679687 8.675781s8.675781-3.882812 8.675781-8.675781v-22.441407l2.542969 2.542969c3.40625 3.289063 8.816406 3.242188 12.164063-.105469 3.347656-3.347656 3.394531-8.761718.105468-12.164062zm0 0"/><path d="m60.640625 442.578125c-4.792969 0-8.679687 3.882813-8.679687 8.675781v52.066406c0 4.792969 3.886718 8.679688 8.679687 8.679688s8.675781-3.886719 8.675781-8.679688v-52.066406c0-4.792968-3.882812-8.675781-8.675781-8.675781zm0 0"/><path d="m294.945312 208.269531h52.066407c4.792969 0 8.679687 3.886719 8.679687 8.679688v69.421875c0 4.792968-3.886718 8.679687-8.679687 8.679687h-52.066407c-4.792968 0-8.679687-3.886719-8.679687-8.679687v-69.421875c0-4.792969 3.886719-8.679688 8.679687-8.679688zm0 0"/><path d="m477.179688 286.371094h-86.777344c-4.792969 0-8.679688 3.886718-8.679688 8.679687s3.886719 8.679688 8.679688 8.679688h86.777344c4.792968 0 8.679687-3.886719 8.679687-8.679688s-3.886719-8.679687-8.679687-8.679687zm0 0"/><path d="m477.179688 433.898438h-34.710938c-4.792969 0-8.675781 3.886718-8.675781 8.679687 0 4.789063 3.882812 8.675781 8.675781 8.675781h34.710938c4.792968 0 8.679687-3.886718 8.679687-8.675781 0-4.792969-3.886719-8.679687-8.679687-8.679687zm0 0"/><path d="m477.179688 355.796875h-121.488282c-4.792968 0-8.679687 3.886719-8.679687 8.675781 0 4.792969 3.886719 8.679688 8.679687 8.679688h121.488282c4.792968 0 8.679687-3.886719 8.679687-8.679688 0-4.789062-3.886719-8.675781-8.679687-8.675781zm0 0"/><path d="m477.179688 390.507812h-86.777344c-4.792969 0-8.679688 3.886719-8.679688 8.679688s3.886719 8.675781 8.679688 8.675781h86.777344c4.792968 0 8.679687-3.882812 8.679687-8.675781s-3.886719-8.679688-8.679687-8.679688zm0 0"/><path d="m477.179688 321.085938h-190.914063c-4.792969 0-8.675781 3.882812-8.675781 8.675781s3.882812 8.679687 8.675781 8.679687h190.914063c4.792968 0 8.679687-3.886718 8.679687-8.679687s-3.886719-8.675781-8.679687-8.675781zm0 0"/><path d="m477.179688 251.660156h-86.777344c-4.792969 0-8.679688 3.886719-8.679688 8.679688 0 4.792968 3.886719 8.675781 8.679688 8.675781h86.777344c4.792968 0 8.679687-3.882813 8.679687-8.675781 0-4.792969-3.886719-8.679688-8.679687-8.679688zm0 0"/><path d="m251.554688 364.472656v-208.269531c.027343-9.574219 7.78125-17.328125 17.355468-17.355469h173.558594v-52.066406c-.027344-9.574219-7.78125-17.328125-17.355469-17.359375h-52.066406v-52.066406c-.03125-9.574219-7.785156-17.3281252-17.355469-17.355469h-225.628906c-9.574219.0273438-17.328125 7.78125-17.355469 17.355469v329.761719c.027344 9.574218 7.78125 17.328124 17.355469 17.355468h52.066406v18.746094c-42.949218 24.742188-69.417968 70.535156-69.421875 120.101562 0 4.792969 3.886719 8.679688 8.679688 8.679688h260.335937c4.792969 0 8.679688-3.886719 8.679688-8.679688-.101563-76.640624-62.207032-138.746093-138.847656-138.847656zm0 0"/></g><path d="m459.824219 208.269531h52.070312l-69.425781-69.421875v52.066406c0 9.585938 7.769531 17.355469 17.355469 17.355469zm0 0" fill="#894b9d"/><path d="m442.46875 86.78125v52.066406h-173.558594c-9.574218.027344-17.328125 7.78125-17.355468 17.355469v208.269531c-24.398438-.054687-48.371094 6.417969-69.425782 18.746094v-296.4375c.03125-9.574219 7.785156-17.328125 17.359375-17.359375h225.625c9.574219.03125 17.328125 7.785156 17.355469 17.359375zm0 0" fill="#7d6599"/><path d="m373.046875 17.355469v52.066406h-173.558594c-9.574219.03125-17.328125 7.785156-17.359375 17.359375v277.691406h-52.066406c-9.574219-.027344-17.328125-7.78125-17.355469-17.355468v-329.761719c.027344-9.574219 7.78125-17.3281252 17.355469-17.355469h225.628906c9.570313.0273438 17.324219 7.78125 17.355469 17.355469zm0 0" fill="#b49aca"/><path d="m121.386719 503.320312c0-71.890624 58.277343-130.167968 130.167969-130.167968 71.890624 0 130.167968 58.277344 130.167968 130.167968zm0 0" fill="#ecf0f1"/><path d="m208.164062 512c-4.792968 0-8.675781-3.886719-8.675781-8.679688.027344-28.742187 23.320313-52.039062 52.066407-52.066406 3.496093.003906 6.984374.351563 10.414062 1.042969 4.695312.957031 7.726562 5.542969 6.769531 10.238281-.960937 4.699219-5.542969 7.726563-10.242187 6.769532-2.285156-.460938-4.609375-.691407-6.941406-.695313-19.171876 0-34.710938 15.542969-34.710938 34.710937 0 4.792969-3.886719 8.679688-8.679688 8.679688zm0 0" fill="#ff5364"/><path d="m251.554688 512c-3.957032.003906-7.414063-2.667969-8.410157-6.496094-.992187-3.828125.726563-7.84375 4.183594-9.765625l78.101563-43.390625c4.1875-2.328125 9.472656-.820312 11.800781 3.367188 2.332031 4.1875.824219 9.472656-3.367188 11.800781l-78.101562 43.390625c-1.285157.714844-2.734375 1.09375-4.207031 1.09375zm0 0" fill="#c03a2b"/><path d="m173.453125 468.609375c0 4.792969-3.886719 8.679687-8.679687 8.679687-4.792969 0-8.675782-3.886718-8.675782-8.679687s3.882813-8.675781 8.675782-8.675781c4.792968 0 8.679687 3.882812 8.679687 8.675781zm0 0" fill="#f29c1f"/><path d="m199.488281 433.898438c0 4.792968-3.886719 8.679687-8.679687 8.679687-4.792969 0-8.679688-3.886719-8.679688-8.679687 0-4.792969 3.886719-8.679688 8.679688-8.679688 4.792968 0 8.679687 3.886719 8.679687 8.679688zm0 0" fill="#f29c1f"/><path d="m234.199219 407.863281c0 4.792969-3.886719 8.679688-8.679688 8.679688s-8.675781-3.886719-8.675781-8.679688 3.882812-8.675781 8.675781-8.675781 8.679688 3.882812 8.679688 8.675781zm0 0" fill="#f29c1f"/><path d="m286.265625 407.863281c0 4.792969-3.882813 8.679688-8.675781 8.679688-4.792969 0-8.679688-3.886719-8.679688-8.679688s3.886719-8.675781 8.679688-8.675781c4.792968 0 8.675781 3.882812 8.675781 8.675781zm0 0" fill="#f29c1f"/><path d="m320.976562 433.898438c0 4.792968-3.882812 8.679687-8.675781 8.679687s-8.679687-3.886719-8.679687-8.679687c0-4.792969 3.886718-8.679688 8.679687-8.679688s8.675781 3.886719 8.675781 8.679688zm0 0" fill="#f29c1f"/><path d="m294.945312 173.558594c0 4.792968-3.886718 8.679687-8.679687 8.679687s-8.675781-3.886719-8.675781-8.679687c0-4.792969 3.882812-8.675782 8.675781-8.675782s8.679687 3.882813 8.679687 8.675782zm0 0" fill="#65ddb9"/><path d="m329.65625 173.558594c0 4.792968-3.886719 8.679687-8.679688 8.679687-4.792968 0-8.675781-3.886719-8.675781-8.679687 0-4.792969 3.882813-8.675782 8.675781-8.675782 4.792969 0 8.679688 3.882813 8.679688 8.675782zm0 0" fill="#65ddb9"/><path d="m364.367188 173.558594c0 4.792968-3.882813 8.679687-8.675782 8.679687-4.792968 0-8.679687-3.886719-8.679687-8.679687 0-4.792969 3.886719-8.675782 8.679687-8.675782 4.792969 0 8.675782 3.882813 8.675782 8.675782zm0 0" fill="#65ddb9"/><path d="m225.519531 104.136719c0 4.792969-3.882812 8.675781-8.675781 8.675781s-8.679688-3.882812-8.679688-8.675781 3.886719-8.679688 8.679688-8.679688 8.675781 3.886719 8.675781 8.679688zm0 0" fill="#ff5364"/><path d="m260.230469 104.136719c0 4.792969-3.882813 8.675781-8.675781 8.675781-4.792969 0-8.679688-3.882812-8.679688-8.675781s3.886719-8.679688 8.679688-8.679688c4.792968 0 8.675781 3.886719 8.675781 8.679688zm0 0" fill="#ff5364"/><path d="m294.945312 104.136719c0 4.792969-3.886718 8.675781-8.679687 8.675781s-8.675781-3.882812-8.675781-8.675781 3.882812-8.679688 8.675781-8.679688 8.679687 3.886719 8.679687 8.679688zm0 0" fill="#ff5364"/><path d="m156.097656 34.710938c0 4.792968-3.886718 8.679687-8.679687 8.679687s-8.675781-3.886719-8.675781-8.679687c0-4.792969 3.882812-8.675782 8.675781-8.675782s8.679687 3.882813 8.679687 8.675782zm0 0" fill="#f0c419"/><path d="m190.808594 34.710938c0 4.792968-3.886719 8.679687-8.679688 8.679687-4.789062 0-8.675781-3.886719-8.675781-8.679687 0-4.792969 3.886719-8.675782 8.675781-8.675782 4.792969 0 8.679688 3.882813 8.679688 8.675782zm0 0" fill="#f0c419"/><path d="m225.519531 34.710938c0 4.792968-3.882812 8.679687-8.675781 8.679687s-8.679688-3.886719-8.679688-8.679687c0-4.792969 3.886719-8.675782 8.679688-8.675782s8.675781 3.882813 8.675781 8.675782zm0 0" fill="#f0c419"/><path d="m43.28125 34.710938c-2.300781 0-4.507812-.914063-6.132812-2.542969l-11.222657-11.21875-11.21875 11.21875c-3.40625 3.289062-8.816406 3.242187-12.164062-.105469-3.347657-3.347656-3.394531-8.757812-.105469-12.164062l17.355469-17.355469c3.386719-3.386719 8.882812-3.386719 12.269531 0l17.355469 17.355469c2.480469 2.480468 3.222656 6.214843 1.882812 9.457031-1.34375 3.242187-4.507812 5.355469-8.019531 5.355469zm0 0" fill="#3d324c"/><path d="m25.925781 95.457031c-4.792969 0-8.675781-3.882812-8.675781-8.675781v-78.101562c0-4.792969 3.882812-8.679688 8.675781-8.679688s8.679688 3.886719 8.679688 8.679688v78.101562c0 4.792969-3.886719 8.675781-8.679688 8.675781zm0 0" fill="#3d324c"/><path d="m25.925781 147.527344c-4.792969 0-8.675781-3.886719-8.675781-8.679688v-17.355468c0-4.792969 3.882812-8.679688 8.675781-8.679688s8.679688 3.886719 8.679688 8.679688v17.355468c0 4.792969-3.886719 8.679688-8.679688 8.679688zm0 0" fill="#3d324c"/><path d="m77.996094 399.1875c-2.300782 0-4.507813-.917969-6.136719-2.542969l-11.21875-11.222656-11.222656 11.222656c-3.40625 3.289063-8.816407 3.242188-12.164063-.105469-3.347656-3.347656-3.394531-8.761718-.105468-12.164062l17.355468-17.359375c3.386719-3.386719 8.882813-3.386719 12.269532 0l17.355468 17.359375c2.484375 2.480469 3.226563 6.210938 1.882813 9.453125s-4.507813 5.359375-8.015625 5.359375zm0 0" fill="#3d324c"/><path d="m60.640625 425.21875c-4.792969 0-8.679687-3.882812-8.679687-8.675781v-43.390625c0-4.792969 3.886718-8.679688 8.679687-8.679688s8.675781 3.886719 8.675781 8.679688v43.390625c0 4.792969-3.882812 8.675781-8.675781 8.675781zm0 0" fill="#3d324c"/><path d="m60.640625 512c-4.792969 0-8.679687-3.886719-8.679687-8.679688v-52.066406c0-4.792968 3.886718-8.675781 8.679687-8.675781s8.675781 3.882813 8.675781 8.675781v52.066406c0 4.792969-3.882812 8.679688-8.675781 8.679688zm0 0" fill="#3d324c"/><path d="m294.945312 208.269531h52.066407c4.792969 0 8.679687 3.886719 8.679687 8.679688v69.421875c0 4.792968-3.886718 8.679687-8.679687 8.679687h-52.066407c-4.792968 0-8.679687-3.886719-8.679687-8.679687v-69.421875c0-4.792969 3.886719-8.679688 8.679687-8.679688zm0 0" fill="#b49aca"/><path d="m477.179688 303.730469h-86.777344c-4.792969 0-8.679688-3.886719-8.679688-8.679688s3.886719-8.679687 8.679688-8.679687h86.777344c4.792968 0 8.679687 3.886718 8.679687 8.679687s-3.886719 8.679688-8.679687 8.679688zm0 0" fill="#894b9d"/><path d="m477.179688 451.253906h-34.710938c-4.792969 0-8.675781-3.886718-8.675781-8.675781 0-4.792969 3.882812-8.679687 8.675781-8.679687h34.710938c4.792968 0 8.679687 3.886718 8.679687 8.679687 0 4.789063-3.886719 8.675781-8.679687 8.675781zm0 0" fill="#894b9d"/><path d="m477.179688 373.152344h-121.488282c-4.792968 0-8.679687-3.886719-8.679687-8.679688 0-4.789062 3.886719-8.675781 8.679687-8.675781h121.488282c4.792968 0 8.679687 3.886719 8.679687 8.675781 0 4.792969-3.886719 8.679688-8.679687 8.679688zm0 0" fill="#894b9d"/><path d="m477.179688 407.863281h-86.777344c-4.792969 0-8.679688-3.882812-8.679688-8.675781s3.886719-8.679688 8.679688-8.679688h86.777344c4.792968 0 8.679687 3.886719 8.679687 8.679688s-3.886719 8.675781-8.679687 8.675781zm0 0" fill="#894b9d"/><path d="m477.179688 338.441406h-190.914063c-4.792969 0-8.675781-3.886718-8.675781-8.679687s3.882812-8.675781 8.675781-8.675781h190.914063c4.792968 0 8.679687 3.882812 8.679687 8.675781s-3.886719 8.679687-8.679687 8.679687zm0 0" fill="#894b9d"/><path d="m477.179688 269.015625h-86.777344c-4.792969 0-8.679688-3.882813-8.679688-8.675781 0-4.792969 3.886719-8.679688 8.679688-8.679688h86.777344c4.792968 0 8.679687 3.886719 8.679687 8.679688 0 4.792968-3.886719 8.675781-8.679687 8.675781zm0 0" fill="#894b9d"/><path d="m251.554688 364.472656c-24.398438-.054687-48.371094 6.417969-69.425782 18.746094-42.949218 24.742188-69.417968 70.535156-69.421875 120.101562 0 4.792969 3.886719 8.679688 8.679688 8.679688h260.335937c4.792969 0 8.679688-3.886719 8.679688-8.679688-.101563-76.640624-62.207032-138.746093-138.847656-138.847656zm-121.144532 130.171875c4.800782-63.355469 57.605469-112.316406 121.144532-112.316406 63.539062 0 116.34375 48.960937 121.144531 112.316406zm0 0" fill="#a5a5a4"/></svg>