<?xml version="1.0" encoding="iso-8859-1"?>
<!-- Generator: Adobe Illustrator 19.0.0, SVG Export Plug-In . SVG Version: 6.00 Build 0)  -->
<svg version="1.1" id="Capa_1" xmlns="http://www.w3.org/2000/svg" xmlns:xlink="http://www.w3.org/1999/xlink" x="0px" y="0px"
	 viewBox="0 0 512 512" style="enable-background:new 0 0 512 512;" xml:space="preserve">
<path style="fill:#FFE477;" d="M302,346H0V132c0-24.853,20.147-45,45-45h257V346z"/>
<rect x="256" y="87" style="fill:#FFA733;" width="46" height="306"/>
<path style="fill:#FF9A00;" d="M302,422H45c-24.853,0-45-20.147-45-45v-35h302V422z"/>
<rect x="256" y="342" style="fill:#E67500;" width="46" height="80"/>
<path style="fill:#E3CEF0;" d="M160,292H60V192h100V292z"/>
<path style="fill:#B87FD9;" d="M150,262c-30.327,0-55-24.673-55-55s24.673-55,55-55s55,24.673,55,55S180.327,262,150,262z"/>
<path style="fill:#8B8992;" d="M477,471H301c-19.299,0-35-15.701-35-35V76c0-19.299,15.701-35,35-35h176c19.299,0,35,15.701,35,35
	v360C512,455.299,496.299,471,477,471z"/>
<path style="fill:#57555C;" d="M477,41h-88v430h88c19.299,0,35-15.701,35-35V76C512,56.701,496.299,41,477,41z"/>
<path style="fill:#E3CEF0;" d="M416,316h-90v-90h90V316z"/>
<path style="fill:#E0E0E2;" d="M424,131h-70c-19.299,0-35-15.701-35-35V41h140v55C459,115.299,443.299,131,424,131z"/>
<path style="fill:#ACABB1;" d="M389,41v90h35c19.299,0,35-15.701,35-35V41H389z"/>
<rect x="389" y="226" style="fill:#D5B4E8;" width="27" height="90"/>
<path style="fill:#B87FD9;" d="M407,285c-24.813,0-45-20.187-45-45s20.187-45,45-45s45,20.187,45,45S431.813,285,407,285z"/>
<path style="fill:#8034AD;" d="M407,195c-6.398,0-12.484,1.351-18,3.769v82.463c5.516,2.418,11.602,3.769,18,3.769
	c24.813,0,45-20.187,45-45S431.813,195,407,195z"/>
<g>
</g>
<g>
</g>
<g>
</g>
<g>
</g>
<g>
</g>
<g>
</g>
<g>
</g>
<g>
</g>
<g>
</g>
<g>
</g>
<g>
</g>
<g>
</g>
<g>
</g>
<g>
</g>
<g>
</g>
</svg>
