<?xml version="1.0" encoding="utf-8"?>
<!-- Generator: Adobe Illustrator 15.0.0, SVG Export Plug-In  -->
<!DOCTYPE svg PUBLIC "-//W3C//DTD SVG 1.1//EN" "http://www.w3.org/Graphics/SVG/1.1/DTD/svg11.dtd" [
	<!ENTITY ns_flows "http://ns.adobe.com/Flows/1.0/">
]>
<svg version="1.1"
	 xmlns="http://www.w3.org/2000/svg" xmlns:xlink="http://www.w3.org/1999/xlink" xmlns:a="http://ns.adobe.com/AdobeSVGViewerExtensions/3.0/"
	 x="0px" y="0px" width="424px" height="65px" viewBox="0 -0.035 424 65" enable-background="new 0 -0.035 424 65"
	 xml:space="preserve">
<defs>
</defs>
<path fill="#EC008C" d="M259.425,41.805c0-5.555,1.527-12.013,4.722-19.166l0,0c1.181-2.361,2.223-4.375,3.194-6.25
	c0.973-1.875,1.806-3.681,2.709-5.625c1.319-2.917,2.569-6.25,4.027-10.764c-0.625,1.181-1.319,2.5-2.014,3.75
	c-0.625,1.181-1.25,2.292-1.736,3.125c-1.667,2.986-3.819,5.625-5.973,8.194c-2.152,2.569-4.305,5.139-6.041,8.125
	c-1.111,1.945-2.084,4.098-2.709,6.598c-0.347,1.805-0.485,3.54-0.485,5.208c0,4.166,1.041,7.986,2.847,11.389
	c0.903,1.666,2.014,3.264,3.264,4.791c-0.139-0.348-0.277-0.625-0.416-0.973C259.91,47.707,259.425,44.861,259.425,41.805z"/>
<path fill="#D5B700" d="M272.619,33.125c0.902-1.597,1.875-2.917,2.847-3.889c1.389-1.39,2.778-2.222,4.167-2.64
	c0.902-0.277,1.806-0.416,2.639-0.416c1.111,0,2.083,0.209,2.986,0.416c0.556,0.14,1.111,0.348,1.597,0.557
	c0.14-0.764,0.209-1.528,0.278-2.361c-0.973-1.667-1.875-3.195-2.639-4.931c-0.765-1.806-1.39-3.89-1.667-6.598l0,0l-0.556-9.931
	c-0.417,3.334-0.902,6.667-1.736,9.861c-0.694,2.917-2.014,5.556-3.333,8.125c-1.389,2.569-2.777,5.07-3.681,7.709
	C273.035,30.278,272.758,31.667,272.619,33.125z"/>
<path fill="#FFF200" d="M282.341,27.292c-1.111,0-2.361,0.208-3.541,0.833c-1.25,0.625-2.5,1.667-3.75,3.333
	c-0.834,1.111-1.598,2.431-2.431,4.097c0,1.389,0.208,2.639,0.556,3.75c0.347,1.182,0.833,2.291,1.458,3.264
	c1.111,1.875,2.569,3.402,4.097,4.723c1.181-2.291,2.431-4.652,3.611-7.014c1.25-2.57,2.292-5.07,3.125-7.291
	c0.348-1.111,0.694-2.222,1.042-3.265c0.069-0.485,0.208-0.972,0.277-1.527c-0.485-0.208-1.041-0.416-1.666-0.625
	C284.216,27.431,283.313,27.292,282.341,27.292z"/>
<path fill="#FFFFFF" d="M308.66,43.541c0,0.07,0,0.139,0,0.209c1.875-4.514,2.64-8.264,2.64-11.458c0-3.334-0.765-6.181-2.084-8.75
	c-1.25-2.57-2.986-4.931-4.861-7.292c-1.875-2.431-3.61-4.792-5.069-6.944c1.598,3.333,3.125,6.666,4.444,10.069
	C306.716,27.015,308.66,35,308.66,43.541z"/>
<path fill="#817F80" d="M294.146,1.597c0.625,1.667,1.319,3.334,2.083,4.931c1.459,3.056,2.986,6.111,4.028,9.236
	c0.694,2.083,1.111,4.236,1.111,6.458c0,1.528-0.209,3.125-0.694,4.723c-0.417,1.527-1.181,3.125-2.153,4.723
	c1.111,2.151,2.361,4.444,3.403,6.804c1.11,2.432,2.083,4.932,2.708,7.223c0.417,1.527,0.625,2.986,0.625,4.307
	c0,0.139,0,0.207,0,0.346c0.833-1.389,1.527-2.707,2.083-4.027c0.069-0.902,0.069-1.875,0.069-2.777
	c0-8.402-1.944-16.249-4.791-23.889C300.327,13.542,297.341,7.569,294.146,1.597z"/>
<path fill="#0071A6" d="M301.716,40.555c-1.458-3.402-3.264-6.875-4.861-9.79c1.32,4.722,1.875,9.165,1.875,13.124
	c0,4.93-0.902,9.166-2.639,12.639c-1.666,3.402-4.166,6.041-7.222,7.568c-0.625,0.348-1.25,0.625-1.944,0.834
	c2.014-0.068,4.027-0.348,6.041-0.834c2.292-0.625,4.514-1.596,6.319-3.055c1.181-0.973,2.223-2.152,3.056-3.541
	c1.111-1.875,1.806-4.236,1.875-7.084c0-0.139,0-0.209,0-0.348c0-1.25-0.277-2.777-0.694-4.375
	C303.104,44.027,302.479,42.291,301.716,40.555z"/>
<path fill="#A20069" d="M277.55,49.514c0.139-0.209,0.208-0.418,0.347-0.695c-0.694-0.486-2.361-1.598-4.306-3.264
	c-2.639-2.291-5.764-5.486-7.847-9.443c-1.39-2.641-2.361-5.625-2.361-8.75c0-0.069,0-0.069,0-0.14
	c-2.014,5.418-2.917,10.347-2.917,14.583c0,3.611,0.694,6.807,1.944,9.375c1.25,2.639,3.125,4.652,5.417,6.041
	c1.458,0.834,3.125,1.459,4.931,1.807c0.139-0.416,0.347-0.902,0.556-1.459c0.347-0.693,0.694-1.527,1.111-2.361
	C275.396,53.541,276.438,51.596,277.55,49.514z"/>
<path fill="#00AEEF" d="M296.508,52.5c0.764-2.57,1.181-5.418,1.181-8.611c0-5.348-1.111-11.527-3.611-18.333l0,0
	c-2.083-5.834-3.889-12.084-5.417-19.098l0,0c-0.277-1.527-0.556-3.056-0.833-4.652c0.139,5.486,0.694,11.111,0.694,16.666
	c0,0.14,0,0.278,0,0.417c0,0.417,0,0.764,0,1.181c0,3.889-0.486,8.473-2.083,13.263c-1.042,3.125-2.639,6.668-4.375,10.07
	s-3.611,6.805-5.139,9.652c-1.042,1.945-1.945,3.682-2.5,5c-0.348,0.764-0.625,1.459-0.765,1.945
	c-0.069,0.207-0.069,0.346-0.139,0.486c0.625,0.764,1.389,1.457,2.223,2.014c0.902,0.555,1.944,0.971,2.847,1.318
	c1.736,0.557,3.194,0.764,3.473,0.764c1.736-0.068,3.333-0.346,4.861-0.902c1.527-0.555,2.847-1.389,4.097-2.43
	C293.521,59.305,295.396,56.318,296.508,52.5z"/>
<path fill="#B3B3B3" d="M363.938,17.917c-10.556,0-20.417,8.68-21.944,19.165c-1.459,10.209,5.972,18.611,16.319,18.611
	c11.111,0,20.833-8.332,22.361-19.098C382.133,26.319,374.633,17.917,363.938,17.917z M371.438,36.805
	c-0.764,5.416-5.834,9.861-11.181,9.861c-5.833,0-9.583-4.236-8.75-9.861c0.764-5.415,5.833-9.79,11.319-9.79
	C368.452,27.015,372.202,31.319,371.438,36.805z"/>
<polygon fill="#B3B3B3" points="411.091,18.681 400.744,43.125 396.854,18.681 384.841,18.681 379.771,54.93 387.827,54.93 
	391.3,30.14 395.396,54.93 402.063,54.93 413.244,29.861 409.771,54.93 417.966,54.93 423.035,18.681 "/>
<path fill="#FFFFFF" d="M26.23,41.389c-2.569,3.611-5,5-8.542,5c-5.486,0-9.098-4.236-8.333-9.652
	c0.764-5.417,5.556-9.722,10.833-9.722c3.68,0,6.042,1.666,7.292,5.207h9.375c-0.347-4.027-1.181-6.25-2.986-8.68
	c-2.847-3.542-7.43-5.625-12.569-5.625c-10.278,0-19.653,8.402-21.111,18.958c-1.458,10.416,5.694,18.68,16.18,18.68
	c4.722,0,9.306-1.598,13.056-4.723c3.264-2.707,4.931-5.068,6.319-9.514H26.23V41.389z"/>
<polygon fill="#FFFFFF" points="49.702,18.681 40.396,18.681 35.327,54.93 55.049,54.93 56.161,46.736 45.744,46.736 "/>
<path fill="#FFFFFF" d="M79.563,18.681l-3.125,22.431c-0.625,4.234-2.223,6.041-5.417,6.041c-3.542,0-4.722-1.736-4.097-5.902
	l3.125-22.569h-8.958l-3.125,22.431c-0.555,4.166-0.486,7.152,0.348,9.027c1.597,3.75,5.417,5.764,11.042,5.764
	c9.583,0,14.653-4.584,16.042-14.514l3.194-22.639h-9.027V18.681z"/>
<path fill="#FFFFFF" d="M108.383,35.625l-0.486-0.139c3.472-2.016,5-4.097,5.486-7.569c0.417-3.056-0.556-6.111-2.569-7.64
	c-1.598-1.181-3.264-1.666-6.25-1.666h-13.75l-5.07,36.25h13.195c8.055,0,12.986-3.82,13.958-10.904
	C113.591,39.443,112.202,36.805,108.383,35.625z M103.8,43.332c-0.348,2.293-2.014,3.543-4.723,3.543h-3.194l0.972-6.807h4.028
	C102.966,40.068,104.077,41.318,103.8,43.332z M104.702,29.375c-0.277,2.083-1.389,2.986-3.75,2.986h-2.986l0.764-5.625h3.195
	C104.008,26.736,104.979,27.64,104.702,29.375z"/>
<polygon fill="#FFFFFF" points="125.536,32.64 126.3,26.875 138.313,26.875 139.425,18.681 118.036,18.681 112.966,54.93 
	122.411,54.93 124.354,40.902 136.3,40.902 137.479,32.64 "/>
<polygon fill="#FFFFFF" points="151.161,18.681 141.854,18.681 136.786,54.93 156.508,54.93 157.618,46.736 147.202,46.736 "/>
<polygon fill="#FFFFFF" points="174.633,18.681 167.202,32.292 163.661,18.681 153.661,18.681 160.952,42.43 159.216,54.93 
	168.036,54.93 169.702,42.707 184.077,18.681 "/>
<polygon fill="#FFFFFF" points="202.688,40.832 203.8,32.5 192.758,32.5 193.521,26.736 204.633,26.736 205.743,18.681 
	185.604,18.681 180.536,54.93 200.675,54.93 201.786,47.082 190.675,47.082 191.577,40.832 "/>
<path fill="#FFFFFF" d="M233.383,30.903c1.11-7.778-2.986-12.223-11.181-12.223h-13.819l-5.069,36.249h8.958l1.667-11.805
	l6.598,11.805h11.25l-8.334-12.709C229.216,40.971,232.479,37.291,233.383,30.903z M218.591,36.943h-3.75l1.389-10.207h4.375
	c2.639,0,4.098,1.944,3.682,4.86C223.868,34.721,221.508,36.943,218.591,36.943z"/>
<path fill="#B3B3B3" d="M322.827,46.389c-5.486,0-9.098-4.236-8.333-9.652c0.764-5.417,5.556-9.722,10.833-9.722
	c3.681,0,6.042,1.666,7.292,5.207h9.375c-0.348-4.027-1.181-6.25-2.986-8.68c-2.848-3.542-7.431-5.625-12.569-5.625
	c-5.834,0-11.389,2.708-15.348,7.014c0.834,2.152,1.319,4.584,1.319,7.223c0,3.401-0.833,7.29-2.708,11.874
	c-0.139,0.416-0.208,0.625-2.014,4.305c2.777,4.375,7.777,7.154,13.819,7.154c4.722,0,9.306-1.598,13.056-4.723
	c3.333-2.709,4.931-5.07,6.319-9.514h-9.514C328.8,45,326.369,46.389,322.827,46.389z"/>
<path fill="#FFFFFF" d="M254.008,35.139c-0.556-0.348-1.111-0.695-1.736-0.973l-4.583-2.151c-1.736-0.834-2.5-2.015-2.292-3.473
	c0.208-1.806,1.806-3.125,3.542-3.125c2.014,0,2.639,0.902,2.639,3.68h3.056c0.694-2.43,1.597-4.582,2.777-6.597
	c0.278-0.486,0.556-0.903,0.834-1.319c-1.944-2.223-5-3.542-8.542-3.542c-7.152,0-13.402,4.931-14.236,11.111
	c-0.625,4.652,1.806,8.402,7.014,10.764l2.709,1.25c2.5,1.111,3.611,2.5,3.402,4.166c-0.277,1.807-1.806,3.195-3.75,3.195
	c-2.5,0-3.264-1.32-3.125-5h-8.819c-0.278,3.68-0.208,5.277,0.278,6.875c1.25,3.611,5.208,5.764,10.694,5.764
	c6.597,0,11.666-3.057,13.75-7.986c-0.209-0.348-0.417-0.625-0.625-0.973C255.119,43.264,254.008,39.375,254.008,35.139z"/>
</svg>
