<?xml version="1.0" encoding="utf-8"?>
<!-- Generator: Adobe Illustrator 15.0.0, SVG Export Plug-In . SVG Version: 6.00 Build 0)  -->
<!DOCTYPE svg PUBLIC "-//W3C//DTD SVG 1.1//EN" "http://www.w3.org/Graphics/SVG/1.1/DTD/svg11.dtd">
<svg version="1.1" id="Layer_1" xmlns="http://www.w3.org/2000/svg" xmlns:xlink="http://www.w3.org/1999/xlink" x="0px" y="0px"
	 width="280px" height="53px" viewBox="0 0 280 53" style="enable-background:new 0 0 280 53;" xml:space="preserve">
<style type="text/css">
<![CDATA[
	.st0{clip-path:url(#SVGID_29_);fill:url(#SVGID_30_);}
	.st1{clip-path:url(#SVGID_2_);fill:url(#SVGID_3_);}
	.st2{clip-path:url(#SVGID_11_);fill:url(#SVGID_12_);}
	.st3{clip-path:url(#SVGID_14_);fill:url(#SVGID_15_);}
	.st4{clip-path:url(#SVGID_5_);fill:url(#SVGID_6_);}
	.st5{fill:#C21E65;}
	.st6{clip-path:url(#SVGID_17_);fill:url(#SVGID_18_);}
	.st7{clip-path:url(#SVGID_32_);fill:url(#SVGID_33_);}
	.st8{fill:#959799;}
	.st9{fill:#058D8B;}
	.st10{fill:#086F81;}
	.st11{clip-path:url(#SVGID_8_);fill:url(#SVGID_9_);}
	.st12{clip-path:url(#SVGID_20_);fill:url(#SVGID_21_);}
	.st13{clip-path:url(#SVGID_23_);fill:url(#SVGID_24_);}
	.st14{clip-path:url(#SVGID_26_);fill:url(#SVGID_27_);}
]]>
</style>
<g>
	<g>
		<path class="st8" d="M83.6,34h1.2c0.5,0,0.7-0.2,0.7-0.7l1.6-20.7h2.4l6.2,13.7C96.4,27.4,97,29,97,29H97c0,0,0.6-1.6,1.1-2.8
			l6.2-13.7h2.4l1.6,20.7c0,0.5,0.3,0.7,0.7,0.7h1.3V36h-2.3c-1.4,0-1.9-0.6-2-2L105,19.7c-0.1-1.3-0.1-3.3-0.1-3.3h-0.1
			c0,0-0.6,2.1-1.2,3.3L98,31.7h-2.1l-5.5-11.9c-0.5-1.2-1.2-3.3-1.2-3.3h-0.1c0,0,0,2.1-0.1,3.3L87.9,34c-0.1,1.4-0.6,2-2,2h-2.2
			V34z"/>
		<path class="st8" d="M118.2,34h0.4c0.6,0,1-0.1,1.2-0.7l7.7-20.7h2.5l7.7,20.7c0.2,0.6,0.6,0.7,1.2,0.7h0.4V36h-1.1
			c-1.7,0-2.2-0.3-2.8-1.9l-2-5.5h-9.3l-2.1,5.5c-0.6,1.6-1.1,1.9-2.7,1.9h-1.1V34z M132.8,26.5l-3.1-8.4c-0.4-1.1-0.9-3-0.9-3h-0.1
			c0,0-0.5,1.9-0.9,3l-3.1,8.4H132.8z"/>
		<path class="st8" d="M150,14.6h-2.2v-2.1h10c3.9,0,6.7,2.6,6.7,6.7c0,3.6-2.2,5.8-4.5,6.3v0.1c0,0,0.5,0.3,0.8,0.9l3.4,6.7
			c0.3,0.7,0.8,0.8,1.7,0.8h0.5V36h-1c-1.9,0-2.5-0.2-3.2-1.8l-3.4-6.7c-0.6-1.2-1.1-1.4-2.4-1.4h-3.9V36H150V14.6z M157.5,24.1
			c2.8,0,4.5-1.8,4.5-4.8c0-2.9-1.7-4.7-4.5-4.7h-5.2v9.5H157.5z"/>
		<path class="st8" d="M186.3,12.2c6.7,0,12,5.2,12,12c0,3.1-1.1,5.9-2.9,8.1l2.9,2.9l-1.4,1.5l-2.9-2.9c-2.1,1.8-4.7,2.7-7.6,2.7
			c-6.6,0-11.9-5.4-11.9-12.3C174.4,17.4,179.7,12.2,186.3,12.2 M186.3,34.2c3.7,0,6-2.1,6-2.1l-2.8-2.8l1.4-1.5l2.8,2.9
			c1.3-1.7,2.2-4,2.2-6.5c0-5.5-4.2-9.8-9.6-9.8c-5.3,0-9.5,4.2-9.5,9.8C176.9,29.8,181,34.2,186.3,34.2"/>
		<path class="st8" d="M209.6,15.4c0-0.5-0.3-0.7-0.7-0.7h-1.4v-2.1h2.5c1.4,0,2,0.6,2,2v13.3c0,3.9,2.5,6.3,6.3,6.3
			s6.3-2.4,6.3-6.4V14.6c0-1.4,0.6-2,2-2h2.5v2.1h-1.4c-0.5,0-0.7,0.2-0.7,0.7V28c0,5.1-3.5,8.4-8.7,8.4s-8.7-3.4-8.7-8.4V15.4z"/>
		<path class="st8" d="M240.5,14.6h-2.2v-2.1h13.4c1.4,0,2,0.6,2,2v2.3h-2.2v-1.6c0-0.5-0.3-0.7-0.7-0.7h-8v8.5h8.8v2.1h-8.8v8
			c0,0.5,0.3,0.7,0.7,0.7h8.2c0.5,0,0.7-0.2,0.7-0.7v-1.6h2.2V34c0,1.4-0.6,2-2,2h-10.2c-1.4,0-2-0.6-2-2V14.6z"/>
		<path class="st8" d="M265.8,14.6h-2.2v-2.1H277c1.4,0,2,0.6,2,2v2.3h-2.2v-1.6c0-0.5-0.3-0.7-0.7-0.7h-8v8.5h8.8v2.1h-8.8v8
			c0,0.5,0.3,0.7,0.7,0.7h8.2c0.5,0,0.7-0.2,0.7-0.7v-1.6h2.2V34c0,1.4-0.6,2-2,2h-10.2c-1.4,0-2-0.6-2-2V14.6z"/>
		<path class="st8" d="M204,45.6c1.9,0,2.8,1.4,2.8,3.1c0,0.2,0,0.5,0,0.5h-5.2c0,1.7,1.2,2.7,2.6,2.7c1.2,0,2-0.8,2-0.8l0.4,0.7
			c0,0-1,1-2.5,1c-2,0-3.5-1.4-3.5-3.5C200.7,47,202.2,45.6,204,45.6 M205.9,48.5c-0.1-1.4-0.9-2.1-1.9-2.1c-1.1,0-2.1,0.7-2.3,2.1
			H205.9z"/>
		<path class="st8" d="M211.3,50.7c0,0,0.9,1.1,2.4,1.1c1,0,1.9-0.7,1.9-1.7c0-2.3-4.6-1.9-4.6-4.8c0-1.3,1.1-2.4,2.9-2.4
			c0.9,0,2.5,0.4,2.5,1.6v0.7h-0.9v-0.4c0-0.6-0.8-1-1.6-1c-1.2,0-1.9,0.7-1.9,1.5c0,2.2,4.6,1.6,4.6,4.7c0,1.4-1.1,2.6-2.8,2.6
			c-1.9,0-3-1.3-3-1.3L211.3,50.7z"/>
		<path class="st8" d="M223.9,45.6c2,0,3.6,1.5,3.6,3.5c0,2-1.6,3.6-3.5,3.6c-2,0-3.6-1.5-3.6-3.6C220.4,47.1,222,45.6,223.9,45.6
			 M223.9,51.9c1.4,0,2.6-1.2,2.6-2.7c0-1.5-1.2-2.7-2.6-2.7c-1.4,0-2.6,1.1-2.6,2.7C221.3,50.7,222.5,51.9,223.9,51.9"/>
		<path class="st8" d="M231.7,44.2c0-0.2-0.1-0.3-0.3-0.3h-0.6v-0.8h1c0.6,0,0.8,0.2,0.8,0.8v7.5c0,0.2,0.1,0.3,0.3,0.3h0.6v0.8
			h-0.9c-0.6,0-0.8-0.2-0.8-0.8V44.2z"/>
		<path class="st8" d="M237.6,46.9c0-0.2-0.1-0.3-0.3-0.3h-0.6v-0.8h0.9c0.6,0,0.8,0.2,0.8,0.8v3.2c0,1.1,0.2,2,1.5,2
			c1.5,0,2.5-1.3,2.5-2.8v-3.2h0.9v5.6c0,0.2,0.1,0.3,0.3,0.3h0.6v0.8h-0.9c-0.6,0-0.8-0.2-0.8-0.8v-0.3c0-0.3,0-0.5,0-0.5h0
			c-0.3,0.7-1.1,1.7-2.6,1.7c-1.6,0-2.3-0.9-2.3-2.6V46.9z"/>
		<path class="st8" d="M248.5,46.6h-0.9v-0.8h0.9v-1.9h0.9v1.9h1.7v0.8h-1.7V50c0,1.6,1,1.8,1.5,1.8c0.2,0,0.3,0,0.3,0v0.8
			c0,0-0.2,0-0.4,0c-0.8,0-2.3-0.3-2.3-2.5V46.6z"/>
		<path class="st8" d="M255.6,46.9c0-0.2-0.1-0.3-0.3-0.3h-0.6v-0.8h0.9c0.6,0,0.8,0.2,0.8,0.8v4.8c0,0.2,0.1,0.3,0.3,0.3h0.6v0.8
			h-0.9c-0.6,0-0.8-0.2-0.8-0.8V46.9z M255.6,43.1h0.9v1.1h-0.9V43.1z"/>
		<path class="st8" d="M264.5,45.6c2,0,3.6,1.5,3.6,3.5c0,2-1.6,3.6-3.5,3.6c-2,0-3.6-1.5-3.6-3.6C260.9,47.1,262.5,45.6,264.5,45.6
			 M264.5,51.9c1.4,0,2.6-1.2,2.6-2.7c0-1.5-1.2-2.7-2.6-2.7c-1.4,0-2.6,1.1-2.6,2.7C261.9,50.7,263,51.9,264.5,51.9"/>
		<path class="st8" d="M272.4,46.9c0-0.2-0.1-0.3-0.3-0.3h-0.6v-0.8h0.9c0.6,0,0.8,0.2,0.8,0.7v0.3c0,0.3,0,0.5,0,0.5h0
			c0.2-0.6,1.1-1.7,2.7-1.7c1.7,0,2.3,0.9,2.3,2.6v3.2c0,0.2,0.1,0.3,0.3,0.3h0.6v0.8h-0.9c-0.6,0-0.8-0.2-0.8-0.8v-3.2
			c0-1.1-0.2-2-1.5-2c-1.1,0-2.1,0.8-2.4,1.9c-0.1,0.3-0.1,0.6-0.1,0.9v3.2h-0.9V46.9z"/>
	</g>
	<g>
		<g>
			<defs>
				<path id="SVGID_1_" d="M20.4,12.4c-0.9,1.8-2,4.3-3,7.6c-0.5,1.8-3.2,9.4-5.3,16.5C10.2,42.6,8.6,49,5.2,50.7
					c7.6-0.4,10.3-19.2,15.6-30.8c0.6-1.4,1.2-2.5,1.8-3.4c-0.5-2-1-3.7-1.5-5.1C20.9,11.7,20.6,12,20.4,12.4"/>
			</defs>
			<clipPath id="SVGID_2_">
				<use xlink:href="#SVGID_1_"  style="overflow:visible;"/>
			</clipPath>
			
				<linearGradient id="SVGID_3_" gradientUnits="userSpaceOnUse" x1="-352.9063" y1="791.3257" x2="-352.6078" y2="791.3257" gradientTransform="matrix(158.2988 0 0 -158.2988 55875.7695 125296.8828)">
				<stop  offset="0" style="stop-color:#D41C56"/>
				<stop  offset="0.3744" style="stop-color:#D41C56"/>
				<stop  offset="0.7488" style="stop-color:#9E3594"/>
				<stop  offset="1" style="stop-color:#9E3594"/>
			</linearGradient>
			<rect x="5.2" y="11.4" class="st1" width="17.4" height="39.3"/>
		</g>
		<g>
			<defs>
				<path id="SVGID_4_" d="M60.1,26.3c-3.2,4.9-4.2,10-5.7,13.6c-2.2,5.4-4.8,7.5-8.2,2.9c-0.7,1.5-1.5,2.9-2.5,4.3
					c0.1,0.2,0.2,0.2,0.2,0.2c2.3,2.5,4.3,3.5,6,3.5c4.8-1.2,6.1-7.6,7.4-14.3c1.1-5.7,2.2-9.1,3.3-11.1
					C60.5,25.7,60.3,26,60.1,26.3"/>
			</defs>
			<clipPath id="SVGID_5_">
				<use xlink:href="#SVGID_4_"  style="overflow:visible;"/>
			</clipPath>
			
				<linearGradient id="SVGID_6_" gradientUnits="userSpaceOnUse" x1="-352.9067" y1="791.4321" x2="-352.6082" y2="791.4321" gradientTransform="matrix(158.2988 0 0 -158.2988 55875.7695 125320.6328)">
				<stop  offset="0" style="stop-color:#067F98"/>
				<stop  offset="0.9261" style="stop-color:#067F98"/>
				<stop  offset="1" style="stop-color:#0BBBCD"/>
			</linearGradient>
			<rect x="43.7" y="25.4" class="st4" width="17" height="25.5"/>
		</g>
		<g>
			<defs>
				<path id="SVGID_7_" d="M5.3,17.4C0.7,30.2,0.1,42.8,0.1,42.8s-0.8,6,2.7,7.5c0.9,0.4,1.7,0.5,2.5,0.5c3.4-1.7,5-8.1,6.8-14.2
					c2.1-7.1,4.8-14.7,5.3-16.5c1-3.3,2.1-5.8,3-7.6c-0.4,0.5-0.8,1.1-1.1,1.8c0,0-2.8,4.3-5.8,14c-1.4,4.5-3.4,9.7-5.1,13.7
					c-2.2,5-5.5,3.6-5.3-1.1c0,0,1.6-13.7,6.4-23.7c4.1-8.5,7.9-16.2,11.7-5.7c0,0,0,0,0,0c1.1-1.4,2.3-2.3,3.4-2.9c0,0,0,0,0-0.1
					c-2.5-5.9-4.9-8.1-7-8.1C14.3,0.3,10,4.6,5.3,17.4"/>
			</defs>
			<clipPath id="SVGID_8_">
				<use xlink:href="#SVGID_7_"  style="overflow:visible;"/>
			</clipPath>
			
				<linearGradient id="SVGID_9_" gradientUnits="userSpaceOnUse" x1="-349.3364" y1="795.2437" x2="-349.0381" y2="795.2437" gradientTransform="matrix(-52.2135 164.9285 164.9285 52.2135 -149379.125 16094.7813)">
				<stop  offset="0" style="stop-color:#F99B1C"/>
				<stop  offset="1" style="stop-color:#EF3F32"/>
			</linearGradient>
			<polygon class="st11" points="39,4.9 22.2,58 -15.2,46.2 1.6,-6.9 			"/>
		</g>
		<g>
			<defs>
				<path id="SVGID_10_" d="M49.7,18c-2.2,4.7-4,11.6-6.1,19.9c0,0.1-0.1,0.2-0.1,0.3c0.9,1.9,1.8,3.4,2.6,4.5
					c0.1-0.2,0.2-0.3,0.2-0.5c0.2-1.6,1-7.1,1.9-13.5c1-6.2,2.1-12.7,4.6-16C51.8,14.1,50.7,15.8,49.7,18"/>
			</defs>
			<clipPath id="SVGID_11_">
				<use xlink:href="#SVGID_10_"  style="overflow:visible;"/>
			</clipPath>
			
				<linearGradient id="SVGID_12_" gradientUnits="userSpaceOnUse" x1="-359.5918" y1="794.7104" x2="-359.2938" y2="794.7104" gradientTransform="matrix(16.0232 -71.2756 -71.2756 -16.0232 62451.0547 -12857.4395)">
				<stop  offset="0" style="stop-color:#6FB248"/>
				<stop  offset="0.1379" style="stop-color:#6FB248"/>
				<stop  offset="1" style="stop-color:#BED630"/>
			</linearGradient>
			<polygon class="st2" points="37.2,41.4 44,10.9 59.4,14.3 52.5,44.8 			"/>
		</g>
		<g>
			<defs>
				<path id="SVGID_13_" d="M60.7,25.4c-1.1,2-2.2,5.4-3.3,11.1c-1.3,6.7-2.6,13.2-7.4,14.3c6.3-0.2,9.7-14.1,12.5-20.8
					c-0.4-1.9-0.8-3.7-1.3-5.4C61,24.9,60.9,25.1,60.7,25.4"/>
			</defs>
			<clipPath id="SVGID_14_">
				<use xlink:href="#SVGID_13_"  style="overflow:visible;"/>
			</clipPath>
			
				<linearGradient id="SVGID_15_" gradientUnits="userSpaceOnUse" x1="-355.8208" y1="782.7739" x2="-355.5225" y2="782.7739" gradientTransform="matrix(42.0465 0 0 -42.0465 15010.9785 32950.6875)">
				<stop  offset="0" style="stop-color:#0E7D96"/>
				<stop  offset="0.1949" style="stop-color:#0F8199"/>
				<stop  offset="0.4442" style="stop-color:#138BA0"/>
				<stop  offset="0.7222" style="stop-color:#1A9EAD"/>
				<stop  offset="0.7241" style="stop-color:#1A9EAD"/>
				<stop  offset="1" style="stop-color:#1A9EAD"/>
			</linearGradient>
			<rect x="49.9" y="24.7" class="st3" width="12.5" height="26.1"/>
		</g>
		<g>
			<defs>
				<path id="SVGID_16_" d="M63.7,27.6c-0.4,0.6-0.8,1.4-1.2,2.4c1.9,8.5,3.7,18.6,8,20.5C67,47.8,65.9,31,65.7,27.4
					c-0.1-0.3-0.1-0.6-0.2-0.9c-0.1,0-0.1,0-0.2,0C64.8,26.5,64.2,26.9,63.7,27.6"/>
			</defs>
			<clipPath id="SVGID_17_">
				<use xlink:href="#SVGID_16_"  style="overflow:visible;"/>
			</clipPath>
			
				<linearGradient id="SVGID_18_" gradientUnits="userSpaceOnUse" x1="-347.0454" y1="790.1919" x2="-346.7471" y2="790.1919" gradientTransform="matrix(26.5515 71.91 71.91 -26.5515 -47545.4922 45965.1016)">
				<stop  offset="0" style="stop-color:#087B71"/>
				<stop  offset="0.1281" style="stop-color:#05976B"/>
				<stop  offset="0.2623" style="stop-color:#05976D"/>
				<stop  offset="0.3975" style="stop-color:#059674"/>
				<stop  offset="0.5329" style="stop-color:#04947D"/>
				<stop  offset="0.6355" style="stop-color:#039187"/>
				<stop  offset="0.7566" style="stop-color:#039188"/>
				<stop  offset="0.8428" style="stop-color:#038F8C"/>
				<stop  offset="0.9182" style="stop-color:#058B92"/>
				<stop  offset="0.987" style="stop-color:#06869B"/>
				<stop  offset="1" style="stop-color:#07859D"/>
			</linearGradient>
			<polygon class="st6" points="69.5,23.9 78.3,47.6 63.4,53.1 54.7,29.4 			"/>
		</g>
		<g>
			<defs>
				<path id="SVGID_19_" d="M24.5,8.5c0.6,1.4,1.1,2.9,1.7,4.7c3.9-1,7,7.2,9.8,16.5c2,6.6,4,11,5.5,13.8c0.8-1.1,1.5-2.8,2.1-5.2
					c-0.6-1.4-1.3-2.9-2-4.7C38.3,24.9,36.5,18,34,13.5c-2-3.6-4.4-5.6-7-5.6C26.2,7.8,25.3,8,24.5,8.5"/>
			</defs>
			<clipPath id="SVGID_20_">
				<use xlink:href="#SVGID_19_"  style="overflow:visible;"/>
			</clipPath>
			
				<linearGradient id="SVGID_21_" gradientUnits="userSpaceOnUse" x1="-352.9063" y1="791.2456" x2="-352.6088" y2="791.2456" gradientTransform="matrix(158.2988 0 0 -158.2988 55875.7695 125278.7578)">
				<stop  offset="0" style="stop-color:#D41C56"/>
				<stop  offset="0.2759" style="stop-color:#D41C56"/>
				<stop  offset="0.5172" style="stop-color:#9E3594"/>
				<stop  offset="0.6059" style="stop-color:#555DA1"/>
				<stop  offset="0.6946" style="stop-color:#067F98"/>
				<stop  offset="1" style="stop-color:#067F98"/>
			</linearGradient>
			<rect x="24.5" y="7.8" class="st12" width="19.1" height="35.6"/>
		</g>
		<g>
			<defs>
				<path id="SVGID_22_" d="M64.3,22.5c0.4,1.2,0.8,2.6,1.2,4.1c3.6,0.5,7.6,15.4,6.8,18c-0.9,3.1-4-3.5-5.7-12.9
					c-0.3-1.5-0.6-2.9-0.9-4.3c0.2,3.6,1.3,20.4,4.7,23.1c0.5,0.2,1,0.3,1.5,0.3c4,0,3.7-8.2,1.7-15.6c-1.8-6.6-4.8-12.8-8.5-12.8
					C64.9,22.4,64.6,22.4,64.3,22.5"/>
			</defs>
			<clipPath id="SVGID_23_">
				<use xlink:href="#SVGID_22_"  style="overflow:visible;"/>
			</clipPath>
			
				<linearGradient id="SVGID_24_" gradientUnits="userSpaceOnUse" x1="-372.3564" y1="778.9946" x2="-372.0583" y2="778.9946" gradientTransform="matrix(17.789 -11.2246 -11.2246 -17.789 15436.3047 9715.627)">
				<stop  offset="0" style="stop-color:#077496"/>
				<stop  offset="0.234" style="stop-color:#0D85A3"/>
				<stop  offset="0.7534" style="stop-color:#1CACC2"/>
				<stop  offset="1" style="stop-color:#1DBFD1"/>
			</linearGradient>
			<polygon class="st13" points="51.5,30.5 72.7,17.1 88.8,42.7 67.6,56.1 			"/>
		</g>
		<g>
			<defs>
				<path id="SVGID_25_" d="M22.6,16.5c0.2,0.6,0.3,1.3,0.5,2c2.6,11.7,6,23,10,28.6c-4.9-8.5-6.5-29.5-6.8-33.2
					c-0.1-0.3-0.2-0.5-0.2-0.8C25.1,13.5,23.9,14.5,22.6,16.5"/>
			</defs>
			<clipPath id="SVGID_26_">
				<use xlink:href="#SVGID_25_"  style="overflow:visible;"/>
			</clipPath>
			
				<linearGradient id="SVGID_27_" gradientUnits="userSpaceOnUse" x1="-342.6563" y1="781.8481" x2="-342.358" y2="781.8481" gradientTransform="matrix(23.8276 23.6204 23.6204 -23.8276 -10284.584 26743.9102)">
				<stop  offset="0" style="stop-color:#CA982C"/>
				<stop  offset="0.1626" style="stop-color:#EFCD1A"/>
				<stop  offset="1" style="stop-color:#BBD532"/>
			</linearGradient>
			<polygon class="st14" points="27.9,7.9 50.2,30 27.9,52.4 5.6,30.3 			"/>
		</g>
		<g>
			<defs>
				<path id="SVGID_28_" d="M33.2,47.2c3.2,4.5,6.8,5.4,10.5-0.1c-0.4-0.5-1.2-1.6-2.3-3.7c-3,4.2-7.1-0.1-9.1-7
					c-1.3-4.5-2.9-10-4.3-16.1c-0.5-2.4-1.1-4.5-1.7-6.4C26.7,17.7,28.3,38.6,33.2,47.2"/>
			</defs>
			<clipPath id="SVGID_29_">
				<use xlink:href="#SVGID_28_"  style="overflow:visible;"/>
			</clipPath>
			
				<linearGradient id="SVGID_30_" gradientUnits="userSpaceOnUse" x1="-353.9927" y1="785.7759" x2="-353.6943" y2="785.7759" gradientTransform="matrix(57.9641 0 0 -57.9641 20545.2539 45580.0469)">
				<stop  offset="0" style="stop-color:#CFC54C"/>
				<stop  offset="0.2266" style="stop-color:#579040"/>
				<stop  offset="1" style="stop-color:#579040"/>
			</linearGradient>
			<rect x="26.4" y="13.9" class="st0" width="17.3" height="38.6"/>
		</g>
		<g>
			<defs>
				<path id="SVGID_31_" d="M53,12.9c-2.5,3.3-3.7,9.8-4.6,16c-1,6.3-1.1,7.9-2.2,13.9c0-0.1,0.3-0.6,0.3-0.7
					c5.3-11.5,4.8-24.9,10.5-24.7c1.9,0.1,3.1,3.1,4.2,7.3c1.1-1.3,2.1-2,3.1-2.2c-1.3-4.1-2.5-6.6-2.5-6.6c-1.6-3.4-3.3-5-5.2-5
					C55.4,10.9,54.2,11.6,53,12.9"/>
			</defs>
			<clipPath id="SVGID_32_">
				<use xlink:href="#SVGID_31_"  style="overflow:visible;"/>
			</clipPath>
			
				<linearGradient id="SVGID_33_" gradientUnits="userSpaceOnUse" x1="-358.3154" y1="789.7632" x2="-358.0173" y2="789.7632" gradientTransform="matrix(57.7388 -42.2681 -42.2681 -57.7388 54119.0117 30486.4785)">
				<stop  offset="0" style="stop-color:#0B7D53"/>
				<stop  offset="0.1098" style="stop-color:#40934E"/>
				<stop  offset="0.2276" style="stop-color:#5FA947"/>
				<stop  offset="0.3005" style="stop-color:#6BB445"/>
				<stop  offset="0.3917" style="stop-color:#81BB41"/>
				<stop  offset="0.5794" style="stop-color:#B5D334"/>
				<stop  offset="0.5813" style="stop-color:#B6D433"/>
				<stop  offset="0.7837" style="stop-color:#B4D334"/>
				<stop  offset="0.87" style="stop-color:#ADD136"/>
				<stop  offset="0.9342" style="stop-color:#A1CD3A"/>
				<stop  offset="0.9872" style="stop-color:#8FC73E"/>
				<stop  offset="1" style="stop-color:#8AC640"/>
			</linearGradient>
			<polygon class="st7" points="31,22.1 58,2.3 79.5,31.7 52.5,51.5 			"/>
		</g>
		<path class="st9" d="M65.5,26.6c-0.4-1.5-0.8-2.8-1.2-4.1c-1,0.2-2,0.9-3.1,2.2c0.4,1.6,0.8,3.5,1.3,5.4c0.4-1,0.8-1.8,1.2-2.4
			C64.3,26.8,64.9,26.5,65.5,26.6"/>
		<path class="st5" d="M26.2,13.2c-0.6-1.8-1.1-3.4-1.7-4.7c-1.1,0.6-2.2,1.5-3.4,2.9c0.5,1.4,1,3.1,1.5,5.1
			C23.9,14.5,25.1,13.5,26.2,13.2"/>
		<path class="st10" d="M43.6,38.3c-0.6,2.4-1.3,4.1-2.1,5.2c1.1,2.1,1.9,3.2,2.3,3.7c0.9-1.4,1.8-2.8,2.5-4.3
			C45.4,41.7,44.5,40.2,43.6,38.3"/>
	</g>
</g>
</svg>
