<?xml version="1.0" encoding="utf-8"?>
<!-- Generator: Adobe Illustrator 15.0.0, SVG Export Plug-In . SVG Version: 6.00 Build 0)  -->
<!DOCTYPE svg PUBLIC "-//W3C//DTD SVG 1.1//EN" "http://www.w3.org/Graphics/SVG/1.1/DTD/svg11.dtd">
<svg version="1.1" id="Layer_1" xmlns="http://www.w3.org/2000/svg" xmlns:xlink="http://www.w3.org/1999/xlink" x="0px" y="0px"
	 width="250px" height="236px" viewBox="0 0 250 236" style="enable-background:new 0 0 250 236;" xml:space="preserve">
<style type="text/css">
<![CDATA[
	.st0{clip-path:url(#SVGID_29_);fill:url(#SVGID_30_);}
	.st1{clip-path:url(#SVGID_2_);fill:url(#SVGID_3_);}
	.st2{fill:#293544;}
	.st3{clip-path:url(#SVGID_11_);fill:url(#SVGID_12_);}
	.st4{clip-path:url(#SVGID_14_);fill:url(#SVGID_15_);}
	.st5{clip-path:url(#SVGID_5_);fill:url(#SVGID_6_);}
	.st6{fill:#C21E65;}
	.st7{clip-path:url(#SVGID_17_);fill:url(#SVGID_18_);}
	.st8{clip-path:url(#SVGID_32_);fill:url(#SVGID_33_);}
	.st9{fill:#058D8B;}
	.st10{fill:#086F81;}
	.st11{clip-path:url(#SVGID_8_);fill:url(#SVGID_9_);}
	.st12{clip-path:url(#SVGID_20_);fill:url(#SVGID_21_);}
	.st13{clip-path:url(#SVGID_23_);fill:url(#SVGID_24_);}
	.st14{clip-path:url(#SVGID_26_);fill:url(#SVGID_27_);}
]]>
</style>
<g>
	<g>
		<defs>
			<path id="SVGID_1_" d="M67.8,40.1c-3,5.8-6.7,14.2-10,25.2c-1.8,6-10.7,31.4-17.7,55c-6,20.3-11.4,41.9-22.7,47.4
				c25.3-1.4,34.2-63.9,51.9-102.5c2.1-4.5,4.1-8.3,6-11.3c-1.7-6.8-3.4-12.5-5-17.1C69.5,37.8,68.6,39,67.8,40.1"/>
		</defs>
		<clipPath id="SVGID_2_">
			<use xlink:href="#SVGID_1_"  style="overflow:visible;"/>
		</clipPath>
		
			<linearGradient id="SVGID_3_" gradientUnits="userSpaceOnUse" x1="-367.6499" y1="882.9536" x2="-366.6565" y2="882.9536" gradientTransform="matrix(158.2988 0 0 -158.2988 58235.25 139872.7344)">
			<stop  offset="0" style="stop-color:#D41C56"/>
			<stop  offset="0.3744" style="stop-color:#D41C56"/>
			<stop  offset="0.7488" style="stop-color:#9E3594"/>
			<stop  offset="1" style="stop-color:#9E3594"/>
		</linearGradient>
		<rect x="17.5" y="36.8" class="st1" width="57.9" height="131"/>
	</g>
	<g>
		<defs>
			<path id="SVGID_4_" d="M200,86.4c-10.5,16.2-14,33.3-18.9,45.3c-7.4,18-16.1,25.1-27.4,9.8c-2.4,4.9-5.1,9.7-8.2,14.3
				c0.4,0.5,0.6,0.8,0.6,0.8c7.6,8.5,14.3,11.8,20.1,11.6c15.9-3.9,20.3-25.4,24.6-47.7c3.7-19.1,7.4-30.2,11.1-37
				C201.3,84.4,200.7,85.3,200,86.4"/>
		</defs>
		<clipPath id="SVGID_5_">
			<use xlink:href="#SVGID_4_"  style="overflow:visible;"/>
		</clipPath>
		
			<linearGradient id="SVGID_6_" gradientUnits="userSpaceOnUse" x1="-367.6499" y1="882.9556" x2="-366.6567" y2="882.9556" gradientTransform="matrix(158.2988 0 0 -158.2988 58235.25 139896.4844)">
			<stop  offset="0" style="stop-color:#067F98"/>
			<stop  offset="0.9261" style="stop-color:#067F98"/>
			<stop  offset="1" style="stop-color:#0BBBCD"/>
		</linearGradient>
		<rect x="145.4" y="83.5" class="st5" width="56.5" height="84.9"/>
	</g>
	<g>
		<defs>
			<path id="SVGID_7_" d="M17.8,56.8C2.4,99.3,0.2,141.3,0.2,141.3s-2.5,20.1,9.1,24.9c2.9,1.2,5.6,1.7,8.2,1.5
				c11.3-5.5,16.7-27.1,22.7-47.4c7-23.6,15.9-49,17.7-55c3.3-10.9,7-19.3,10-25.2c-1.3,1.8-2.5,3.8-3.8,5.9c0,0-9.5,14.2-19.3,46.5
				c-4.5,14.8-11.3,32.2-17.1,45.7c-7.2,16.8-18.3,12-17.7-3.7c0,0,5.3-45.5,21.4-78.8c13.7-28.4,26.3-54,39-19c0,0,0,0,0,0
				c3.7-4.6,7.5-7.8,11.2-9.7c0-0.1-0.1-0.2-0.1-0.2C73.3,7.2,65.1,0,58.1,0C47.7,0,33.1,14.3,17.8,56.8"/>
		</defs>
		<clipPath id="SVGID_8_">
			<use xlink:href="#SVGID_7_"  style="overflow:visible;"/>
		</clipPath>
		
			<linearGradient id="SVGID_9_" gradientUnits="userSpaceOnUse" x1="-364.9277" y1="886.9214" x2="-363.9345" y2="886.9214" gradientTransform="matrix(-52.2135 164.9285 164.9285 52.2135 -165268.2813 13882.6699)">
			<stop  offset="0" style="stop-color:#F99B1C"/>
			<stop  offset="1" style="stop-color:#EF3F32"/>
		</linearGradient>
		<polygon class="st11" points="129.8,15.3 73.9,192 -50.6,152.6 5.4,-24.1 		"/>
	</g>
	<g>
		<defs>
			<path id="SVGID_10_" d="M165.5,58.9c-7.3,15.6-13.3,38.5-20.2,66.4c-0.1,0.4-0.2,0.7-0.3,1c3,6.5,5.9,11.5,8.6,15.1
				c0.3-0.5,0.5-1.1,0.8-1.6c0.7-5.4,3.2-23.7,6.4-44.8c3.2-20.7,7.1-42.3,15.4-53.1C172.6,45.9,168.9,51.6,165.5,58.9"/>
		</defs>
		<clipPath id="SVGID_11_">
			<use xlink:href="#SVGID_10_"  style="overflow:visible;"/>
		</clipPath>
		
			<linearGradient id="SVGID_12_" gradientUnits="userSpaceOnUse" x1="-374.2021" y1="884.5923" x2="-373.209" y2="884.5923" gradientTransform="matrix(16.0232 -71.2756 -71.2756 -16.0232 69198.125 -12368.9512)">
			<stop  offset="0" style="stop-color:#6FB248"/>
			<stop  offset="0.1379" style="stop-color:#6FB248"/>
			<stop  offset="1" style="stop-color:#BED630"/>
		</linearGradient>
		<polygon class="st3" points="123.7,136.7 146.6,35.2 197.6,46.7 174.8,148.1 		"/>
	</g>
	<g>
		<defs>
			<path id="SVGID_13_" d="M202,83.5c-3.7,6.8-7.5,17.8-11.1,37c-4.3,22.4-8.7,43.8-24.6,47.7c21.1-0.6,32.2-46.8,41.7-69.2
				c-1.4-6.3-2.7-12.4-4.2-17.8C203.2,81.9,202.6,82.7,202,83.5"/>
		</defs>
		<clipPath id="SVGID_14_">
			<use xlink:href="#SVGID_13_"  style="overflow:visible;"/>
		</clipPath>
		
			<linearGradient id="SVGID_15_" gradientUnits="userSpaceOnUse" x1="-367.6982" y1="874.3823" x2="-366.7056" y2="874.3823" gradientTransform="matrix(42.0465 0 0 -42.0465 15626.6758 36889.4453)">
			<stop  offset="0" style="stop-color:#0E7D96"/>
			<stop  offset="0.1949" style="stop-color:#0F8199"/>
			<stop  offset="0.4442" style="stop-color:#138BA0"/>
			<stop  offset="0.7222" style="stop-color:#1A9EAD"/>
			<stop  offset="0.7241" style="stop-color:#1A9EAD"/>
			<stop  offset="1" style="stop-color:#1A9EAD"/>
		</linearGradient>
		<rect x="166.2" y="81.2" class="st4" width="41.7" height="87"/>
	</g>
	<g>
		<defs>
			<path id="SVGID_16_" d="M212.1,90.9c-1.4,2-2.7,4.8-4.1,8.1c6.2,28.4,12.5,61.8,26.6,68.1c-11.6-9-15.2-64.9-15.8-76.9
				c-0.2-1-0.5-1.9-0.7-2.9c-0.2,0-0.4,0-0.7,0C215.6,87.3,213.8,88.4,212.1,90.9"/>
		</defs>
		<clipPath id="SVGID_17_">
			<use xlink:href="#SVGID_16_"  style="overflow:visible;"/>
		</clipPath>
		
			<linearGradient id="SVGID_18_" gradientUnits="userSpaceOnUse" x1="-361.6436" y1="883.7837" x2="-360.6506" y2="883.7837" gradientTransform="matrix(26.5515 71.91 71.91 -26.5515 -53741.9883 49564.7148)">
			<stop  offset="0" style="stop-color:#087B71"/>
			<stop  offset="0.1281" style="stop-color:#05976B"/>
			<stop  offset="0.2623" style="stop-color:#05976D"/>
			<stop  offset="0.3975" style="stop-color:#059674"/>
			<stop  offset="0.5329" style="stop-color:#04947D"/>
			<stop  offset="0.6355" style="stop-color:#039187"/>
			<stop  offset="0.7566" style="stop-color:#039188"/>
			<stop  offset="0.8428" style="stop-color:#038F8C"/>
			<stop  offset="0.9182" style="stop-color:#058B92"/>
			<stop  offset="0.987" style="stop-color:#06869B"/>
			<stop  offset="1" style="stop-color:#07859D"/>
		</linearGradient>
		<polygon class="st7" points="231.4,78.7 260.5,157.6 211.2,175.8 182,96.9 		"/>
	</g>
	<g>
		<defs>
			<path id="SVGID_19_" d="M81.5,27.1c1.9,4.5,3.7,9.8,5.6,15.7c13-3.4,23.2,24.1,32.6,54.9c6.7,21.8,13.3,36.5,18.2,45.8
				c2.7-3.7,5.1-9.3,7.1-17.2c-2.1-4.5-4.3-9.7-6.6-15.6c-11.1-28.9-16.8-51.7-25.3-66.9C106.6,32,98.5,25,89.8,25
				C87.1,25,84.3,25.7,81.5,27.1"/>
		</defs>
		<clipPath id="SVGID_20_">
			<use xlink:href="#SVGID_19_"  style="overflow:visible;"/>
		</clipPath>
		
			<linearGradient id="SVGID_21_" gradientUnits="userSpaceOnUse" x1="-367.6499" y1="882.9536" x2="-366.6572" y2="882.9536" gradientTransform="matrix(158.2988 0 0 -158.2988 58235.25 139854.6094)">
			<stop  offset="0" style="stop-color:#D41C56"/>
			<stop  offset="0.2759" style="stop-color:#D41C56"/>
			<stop  offset="0.5172" style="stop-color:#9E3594"/>
			<stop  offset="0.6059" style="stop-color:#555DA1"/>
			<stop  offset="0.6946" style="stop-color:#067F98"/>
			<stop  offset="1" style="stop-color:#067F98"/>
		</linearGradient>
		<rect x="81.5" y="25" class="st12" width="63.5" height="118.4"/>
	</g>
	<g>
		<defs>
			<path id="SVGID_22_" d="M214.2,73.8c1.3,4.1,2.6,8.6,3.9,13.5c12.1,1.8,25.3,51.1,22.6,59.9c-3.1,10.3-13.4-11.5-18.9-42.8
				c-0.9-5-1.9-9.8-3-14.3c0.6,12,4.2,68,15.8,76.9c1.5,0.7,3.2,1.1,4.9,1.1c13.4,0,12.5-27.1,5.8-52c-5.9-21.9-16.1-42.7-28.4-42.7
				C215.9,73.5,215.1,73.6,214.2,73.8"/>
		</defs>
		<clipPath id="SVGID_23_">
			<use xlink:href="#SVGID_22_"  style="overflow:visible;"/>
		</clipPath>
		
			<linearGradient id="SVGID_24_" gradientUnits="userSpaceOnUse" x1="-380.209" y1="866.2622" x2="-379.2162" y2="866.2622" gradientTransform="matrix(17.789 -11.2246 -11.2246 -17.789 16715.1895 11266.4551)">
			<stop  offset="0" style="stop-color:#077496"/>
			<stop  offset="0.234" style="stop-color:#0D85A3"/>
			<stop  offset="0.7534" style="stop-color:#1CACC2"/>
			<stop  offset="1" style="stop-color:#1DBFD1"/>
		</linearGradient>
		<polygon class="st13" points="171.4,100.5 241.8,56 295.6,141.2 225.2,185.7 		"/>
	</g>
	<g>
		<defs>
			<path id="SVGID_25_" d="M75.4,53.8c0.5,2.2,1.1,4.4,1.6,6.8c8.7,39,20.1,76.6,33.4,95.3C94.1,127.6,88.7,57.9,87.9,45.4
				c-0.3-0.9-0.5-1.7-0.8-2.5C83.4,43.8,79.5,47.3,75.4,53.8"/>
		</defs>
		<clipPath id="SVGID_26_">
			<use xlink:href="#SVGID_25_"  style="overflow:visible;"/>
		</clipPath>
		
			<linearGradient id="SVGID_27_" gradientUnits="userSpaceOnUse" x1="-357.3691" y1="875.4976" x2="-356.3761" y2="875.4976" gradientTransform="matrix(23.8276 23.6204 23.6204 -23.8276 -12103.4375 29369.9434)">
			<stop  offset="0" style="stop-color:#CA982C"/>
			<stop  offset="0.1626" style="stop-color:#EFCD1A"/>
			<stop  offset="1" style="stop-color:#BBD532"/>
		</linearGradient>
		<polygon class="st14" points="92.7,25.3 167,98.9 93,173.5 18.8,99.9 		"/>
	</g>
	<g>
		<defs>
			<path id="SVGID_28_" d="M110.4,156c10.7,15,22.5,17.9,35.1-0.3c-1.2-1.5-3.9-5.4-7.5-12.2c-10.1,14-23.5-0.2-30.2-23.2
				c-4.4-15-9.6-33.3-14.3-53.6c-1.8-7.9-3.7-15-5.6-21.3C88.7,57.9,94.1,127.6,110.4,156"/>
		</defs>
		<clipPath id="SVGID_29_">
			<use xlink:href="#SVGID_28_"  style="overflow:visible;"/>
		</clipPath>
		
			<linearGradient id="SVGID_30_" gradientUnits="userSpaceOnUse" x1="-367.6729" y1="877.5376" x2="-366.6802" y2="877.5376" gradientTransform="matrix(57.9641 0 0 -57.9641 21399.7148 50975.2578)">
			<stop  offset="0" style="stop-color:#CFC54C"/>
			<stop  offset="0.2266" style="stop-color:#579040"/>
			<stop  offset="1" style="stop-color:#579040"/>
		</linearGradient>
		<rect x="87.9" y="45.4" class="st0" width="57.5" height="128.6"/>
	</g>
	<g>
		<defs>
			<path id="SVGID_31_" d="M176.3,41.9C168,52.8,164.1,74.4,160.9,95c-3.3,21.1-3.6,26.3-7.2,46.4c0.1-0.2,1-2,1.1-2.2
				c17.8-38.4,15.9-82.8,34.9-82.3c6.2,0.2,10.4,10.2,14.1,24.2c3.6-4.2,7-6.6,10.4-7.4c-4.4-13.7-8.5-21.9-8.5-21.9
				c-5.2-11.3-11.1-16.5-17.2-16.5C184.4,35.4,180.3,37.6,176.3,41.9"/>
		</defs>
		<clipPath id="SVGID_32_">
			<use xlink:href="#SVGID_31_"  style="overflow:visible;"/>
		</clipPath>
		
			<linearGradient id="SVGID_33_" gradientUnits="userSpaceOnUse" x1="-371.7202" y1="880.4155" x2="-370.7274" y2="880.4155" gradientTransform="matrix(57.7388 -42.2681 -42.2681 -57.7388 58837.625 35227.0547)">
			<stop  offset="0" style="stop-color:#0B7D53"/>
			<stop  offset="0.1098" style="stop-color:#40934E"/>
			<stop  offset="0.2276" style="stop-color:#5FA947"/>
			<stop  offset="0.3005" style="stop-color:#6BB445"/>
			<stop  offset="0.3917" style="stop-color:#81BB41"/>
			<stop  offset="0.5794" style="stop-color:#B5D334"/>
			<stop  offset="0.5813" style="stop-color:#B6D433"/>
			<stop  offset="0.7837" style="stop-color:#B4D334"/>
			<stop  offset="0.87" style="stop-color:#ADD136"/>
			<stop  offset="0.9342" style="stop-color:#A1CD3A"/>
			<stop  offset="0.9872" style="stop-color:#8FC73E"/>
			<stop  offset="1" style="stop-color:#8AC640"/>
		</linearGradient>
		<polygon class="st8" points="103.1,72.4 193.1,6.6 264.7,104.4 174.8,170.3 		"/>
	</g>
	<path class="st2" d="M4.8,212.9h1.5c0.6,0,0.9-0.3,0.9-0.9l2-25.5h2.9l7.7,16.8c0.7,1.5,1.4,3.4,1.4,3.4h0.1c0,0,0.7-1.9,1.4-3.4
		l7.7-16.8h2.9l2,25.5c0,0.6,0.3,0.9,0.9,0.9h1.6v2.6H35c-1.8,0-2.4-0.7-2.5-2.5l-1.4-17.6c-0.1-1.6-0.1-4-0.1-4h-0.1
		c0,0-0.8,2.6-1.5,4l-6.9,14.7H20l-6.8-14.7c-0.7-1.4-1.5-4.1-1.5-4.1h-0.1c0,0,0,2.6-0.1,4.1l-1.4,17.6c-0.1,1.8-0.7,2.5-2.5,2.5
		H4.8V212.9z"/>
	<path class="st2" d="M47.4,212.9h0.5c0.7,0,1.2-0.1,1.5-0.9l9.5-25.5H62l9.5,25.5c0.3,0.8,0.7,0.9,1.5,0.9h0.5v2.6h-1.3
		c-2.1,0-2.7-0.4-3.4-2.4l-2.5-6.8H54.7l-2.6,6.8c-0.7,2-1.3,2.4-3.4,2.4h-1.4V212.9z M65.4,203.7l-3.8-10.3
		c-0.5-1.4-1.1-3.7-1.1-3.7h-0.1c0,0-0.6,2.4-1.1,3.7l-3.8,10.3H65.4z"/>
	<path class="st2" d="M86.6,189.1h-2.7v-2.6h12.3c4.9,0,8.3,3.2,8.3,8.2c0,4.5-2.8,7.1-5.6,7.7v0.1c0,0,0.6,0.3,1,1.2l4.2,8.2
		c0.4,0.9,1,0.9,2.1,0.9h0.6v2.6h-1.3c-2.3,0-3-0.3-4-2.2l-4.2-8.3c-0.8-1.5-1.3-1.7-2.9-1.7h-4.9v12.2h-2.9V189.1z M95.9,200.7
		c3.5,0,5.6-2.3,5.6-5.9c0-3.6-2.1-5.8-5.6-5.8h-6.5v11.6H95.9z"/>
	<path class="st2" d="M131.4,186c8.3,0,14.8,6.5,14.8,14.8c0,3.8-1.4,7.3-3.6,10l3.5,3.5l-1.8,1.9l-3.5-3.6
		c-2.6,2.2-5.8,3.4-9.4,3.4c-8.2,0-14.6-6.7-14.6-15.1C116.7,192.5,123.2,186,131.4,186 M131.4,213.2c4.6,0,7.4-2.6,7.4-2.6
		l-3.5-3.5l1.8-1.9l3.4,3.5c1.6-2.1,2.7-5,2.7-8c0-6.8-5.1-12-11.8-12c-6.5,0-11.6,5.2-11.6,12C119.7,207.8,124.8,213.2,131.4,213.2
		"/>
	<path class="st2" d="M160,190c0-0.6-0.3-0.9-0.9-0.9h-1.8v-2.6h3c1.8,0,2.5,0.7,2.5,2.5v16.4c0,4.8,3,7.8,7.8,7.8
		c4.7,0,7.8-3,7.8-7.9V189c0-1.8,0.7-2.5,2.5-2.5h3v2.6h-1.8c-0.6,0-0.9,0.3-0.9,0.9v15.6c0,6.3-4.3,10.4-10.7,10.4
		s-10.7-4.2-10.7-10.4V190z"/>
	<path class="st2" d="M198.1,189.1h-2.7v-2.6h16.5c1.8,0,2.5,0.7,2.5,2.5v2.9h-2.7V190c0-0.6-0.3-0.9-0.9-0.9h-9.9v10.5h10.9v2.6
		h-10.9v9.8c0,0.6,0.3,0.9,0.9,0.9H212c0.6,0,0.9-0.3,0.9-0.9v-1.9h2.7v2.9c0,1.8-0.7,2.5-2.5,2.5h-12.5c-1.8,0-2.5-0.7-2.5-2.5
		V189.1z"/>
	<path class="st2" d="M229.2,189.1h-2.7v-2.6h16.5c1.8,0,2.5,0.7,2.5,2.5v2.9h-2.7V190c0-0.6-0.3-0.9-0.9-0.9h-9.9v10.5H243v2.6
		h-10.9v9.8c0,0.6,0.3,0.9,0.9,0.9h10.2c0.6,0,0.9-0.3,0.9-0.9v-1.9h2.7v2.9c0,1.8-0.7,2.5-2.5,2.5h-12.5c-1.8,0-2.5-0.7-2.5-2.5
		V189.1z"/>
	<path class="st2" d="M153.2,227.3c2.3,0,3.5,1.8,3.5,3.8c0,0.2,0,0.6,0,0.6h-6.4c0,2.1,1.5,3.3,3.2,3.3c1.5,0,2.5-1,2.5-1l0.5,0.8
		c0,0-1.2,1.2-3.1,1.2c-2.5,0-4.3-1.8-4.3-4.3C149.1,228.9,151,227.3,153.2,227.3 M155.5,230.8c-0.1-1.7-1.1-2.5-2.3-2.5
		c-1.4,0-2.6,0.9-2.8,2.5H155.5z"/>
	<path class="st2" d="M162.1,233.5c0,0,1.2,1.4,3,1.4c1.3,0,2.3-0.8,2.3-2.1c0-2.9-5.7-2.3-5.7-5.9c0-1.6,1.4-3,3.5-3
		c1.1,0,3.1,0.5,3.1,2v0.8h-1.1v-0.5c0-0.7-1-1.2-2-1.2c-1.5,0-2.4,0.9-2.4,1.9c0,2.7,5.7,2,5.7,5.8c0,1.7-1.3,3.2-3.5,3.2
		c-2.4,0-3.7-1.6-3.7-1.6L162.1,233.5z"/>
	<path class="st2" d="M177.7,227.3c2.4,0,4.4,1.8,4.4,4.3c0,2.5-2,4.4-4.4,4.4c-2.4,0-4.4-1.9-4.4-4.4
		C173.3,229.1,175.3,227.3,177.7,227.3 M177.7,234.9c1.8,0,3.2-1.4,3.2-3.4c0-1.9-1.4-3.3-3.2-3.3c-1.8,0-3.2,1.4-3.2,3.3
		C174.5,233.5,175.9,234.9,177.7,234.9"/>
	<path class="st2" d="M187.3,225.5c0-0.2-0.1-0.4-0.4-0.4h-0.7v-1h1.2c0.7,0,1,0.3,1,1v9.2c0,0.2,0.1,0.4,0.4,0.4h0.7v1h-1.2
		c-0.7,0-1-0.3-1-1V225.5z"/>
	<path class="st2" d="M194.6,228.8c0-0.2-0.1-0.4-0.4-0.4h-0.7v-1h1.2c0.7,0,1,0.3,1,1v4c0,1.3,0.2,2.5,1.8,2.5c1.9,0,3-1.7,3-3.5
		v-4h1.1v6.9c0,0.2,0.1,0.4,0.4,0.4h0.7v1h-1.1c-0.7,0-1-0.3-1-0.9v-0.4c0-0.3,0-0.6,0-0.6h0c-0.3,0.8-1.4,2.1-3.2,2.1
		c-2,0-2.8-1.1-2.8-3.2V228.8z"/>
	<path class="st2" d="M207.9,228.4h-1.1v-0.9h1.1v-2.3h1.1v2.3h2.1v0.9H209v4.2c0,1.9,1.2,2.2,1.9,2.2c0.2,0,0.4,0,0.4,0v1
		c0,0-0.2,0-0.5,0c-1,0-2.9-0.3-2.9-3.1V228.4z"/>
	<path class="st2" d="M216.7,228.8c0-0.2-0.1-0.4-0.4-0.4h-0.7v-1h1.2c0.7,0,1,0.3,1,1v5.9c0,0.2,0.1,0.4,0.4,0.4h0.7v1h-1.2
		c-0.7,0-1-0.3-1-1V228.8z M216.7,224.2h1.1v1.4h-1.1V224.2z"/>
	<path class="st2" d="M227.6,227.3c2.4,0,4.4,1.8,4.4,4.3c0,2.5-2,4.4-4.4,4.4c-2.4,0-4.4-1.9-4.4-4.4
		C223.3,229.1,225.2,227.3,227.6,227.3 M227.7,234.9c1.8,0,3.2-1.4,3.2-3.4c0-1.9-1.4-3.3-3.2-3.3c-1.8,0-3.2,1.4-3.2,3.3
		C224.4,233.5,225.9,234.9,227.7,234.9"/>
	<path class="st2" d="M237.4,228.8c0-0.2-0.1-0.4-0.4-0.4h-0.7v-1h1.2c0.7,0,1,0.3,1,0.9v0.4c0,0.3,0,0.6,0,0.6h0
		c0.3-0.8,1.3-2.1,3.3-2.1c2.1,0,2.8,1.2,2.8,3.2v3.9c0,0.2,0.1,0.4,0.4,0.4h0.7v1h-1.2c-0.7,0-1-0.3-1-1v-4c0-1.3-0.2-2.5-1.8-2.5
		c-1.4,0-2.6,1-3,2.3c-0.1,0.3-0.1,0.7-0.1,1.1v4h-1.1V228.8z"/>
	<path class="st9" d="M218.1,87.4c-1.3-4.9-2.6-9.5-3.9-13.5c-3.3,0.8-6.8,3.2-10.4,7.4c1.4,5.5,2.8,11.5,4.2,17.8
		c1.4-3.3,2.8-6.1,4.1-8.1C214,88.1,216,87.1,218.1,87.4"/>
	<path class="st6" d="M87.1,42.8c-1.8-5.9-3.7-11.2-5.6-15.7c-3.7,1.9-7.5,5-11.2,9.7c1.7,4.6,3.3,10.2,5,17.1
		C79.6,47.3,83.5,43.8,87.1,42.8"/>
	<path class="st10" d="M145.1,126.3c-2,7.9-4.5,13.5-7.1,17.2c3.6,6.8,6.3,10.7,7.5,12.2c3.1-4.6,5.8-9.4,8.2-14.3
		C151,137.8,148.1,132.8,145.1,126.3"/>
</g>
</svg>
