<?xml version="1.0" encoding="utf-8"?>
<!-- Generator: Adobe Illustrator 15.0.0, SVG Export Plug-In . SVG Version: 6.00 Build 0)  -->
<!DOCTYPE svg PUBLIC "-//W3C//DTD SVG 1.1//EN" "http://www.w3.org/Graphics/SVG/1.1/DTD/svg11.dtd">
<svg version="1.1" id="Layer_1" xmlns="http://www.w3.org/2000/svg" xmlns:xlink="http://www.w3.org/1999/xlink" x="0px" y="0px"
	 width="280px" height="53px" viewBox="0 0 280 53" enable-background="new 0 0 280 53" xml:space="preserve">
<g>
	<path fill="#FFFFFF" d="M83.6,34h1.2c0.5,0,0.7-0.2,0.7-0.7l1.6-20.7h2.4l6.2,13.7C96.4,27.4,97,29,97,29l0,0c0,0,0.6-1.6,1.1-2.8
		l6.2-13.7h2.4l1.6,20.7c0,0.5,0.3,0.7,0.7,0.7h1.3V36H108c-1.4,0-1.9-0.6-2-2l-1-14.3c-0.1-1.3-0.1-3.3-0.1-3.3h-0.1
		c0,0-0.6,2.1-1.2,3.3l-5.6,12h-2.1l-5.5-11.9c-0.5-1.2-1.2-3.3-1.2-3.3h-0.1c0,0,0,2.1-0.1,3.3L87.9,34c-0.1,1.4-0.6,2-2,2h-2.2v-2
		H83.6z"/>
	<path fill="#FFFFFF" d="M118.2,34h0.4c0.6,0,1-0.1,1.2-0.7l7.7-20.7h2.5l7.7,20.7c0.2,0.601,0.6,0.7,1.2,0.7h0.4v2h-1.1
		c-1.7,0-2.2-0.3-2.8-1.9l-2-5.5h-9.3l-2.1,5.5c-0.6,1.601-1.1,1.9-2.7,1.9h-1.1V34L118.2,34z M132.8,26.5l-3.1-8.4
		c-0.4-1.1-0.9-3-0.9-3h-0.1c0,0-0.5,1.9-0.9,3l-3.1,8.4H132.8z"/>
	<path fill="#FFFFFF" d="M150,14.6h-2.2v-2.1h10c3.9,0,6.7,2.6,6.7,6.7c0,3.6-2.2,5.8-4.5,6.3v0.1c0,0,0.5,0.3,0.8,0.9l3.4,6.7
		c0.3,0.7,0.8,0.8,1.7,0.8h0.5v2h-1c-1.9,0-2.5-0.2-3.2-1.8l-3.4-6.7c-0.6-1.2-1.1-1.4-2.399-1.4h-3.9V36H150V14.6z M157.5,24.1
		c2.8,0,4.5-1.8,4.5-4.8c0-2.9-1.7-4.7-4.5-4.7h-5.2v9.5H157.5z"/>
	<path fill="#FFFFFF" d="M186.3,12.2c6.7,0,12,5.2,12,12c0,3.1-1.1,5.899-2.899,8.1l2.899,2.9l-1.399,1.5l-2.9-2.9
		c-2.1,1.8-4.7,2.7-7.6,2.7c-6.601,0-11.9-5.4-11.9-12.3C174.4,17.4,179.7,12.2,186.3,12.2 M186.3,34.2c3.7,0,6-2.101,6-2.101
		l-2.8-2.8l1.4-1.5l2.8,2.9c1.3-1.7,2.2-4,2.2-6.5c0-5.5-4.2-9.8-9.601-9.8c-5.3,0-9.5,4.2-9.5,9.8C176.9,29.8,181,34.2,186.3,34.2"
		/>
	<path fill="#FFFFFF" d="M209.6,15.4c0-0.5-0.3-0.7-0.699-0.7h-1.4v-2.1h2.5c1.4,0,2,0.6,2,2v13.3c0,3.899,2.5,6.3,6.3,6.3
		s6.3-2.4,6.3-6.4V14.6c0-1.4,0.601-2,2-2h2.5v2.1H227.7c-0.5,0-0.7,0.2-0.7,0.7V28c0,5.1-3.5,8.4-8.7,8.4s-8.7-3.4-8.7-8.4V15.4
		L209.6,15.4z"/>
	<path fill="#FFFFFF" d="M240.5,14.6h-2.2v-2.1h13.4c1.399,0,2,0.6,2,2v2.3h-2.2v-1.6c0-0.5-0.3-0.7-0.7-0.7h-8V23h8.8v2.1h-8.8v8
		c0,0.5,0.3,0.7,0.7,0.7h8.2c0.5,0,0.7-0.2,0.7-0.7v-1.6h2.199V34c0,1.4-0.6,2-2,2H242.4c-1.4,0-2-0.6-2-2V14.6H240.5z"/>
	<path fill="#FFFFFF" d="M265.8,14.6h-2.2v-2.1H277c1.4,0,2,0.6,2,2v2.3h-2.2v-1.6c0-0.5-0.3-0.7-0.7-0.7h-8V23h8.801v2.1H268.1v8
		c0,0.5,0.301,0.7,0.7,0.7h8.2c0.5,0,0.7-0.2,0.7-0.7v-1.6h2.2V34c0,1.4-0.601,2-2,2h-10.2c-1.4,0-2-0.6-2-2V14.6H265.8z"/>
	<path fill="#FFFFFF" d="M204,45.6c1.9,0,2.8,1.4,2.8,3.101c0,0.2,0,0.5,0,0.5h-5.2c0,1.7,1.2,2.7,2.601,2.7c1.2,0,2-0.801,2-0.801
		l0.399,0.7c0,0-1,1-2.5,1c-2,0-3.5-1.399-3.5-3.5C200.7,47,202.2,45.6,204,45.6 M205.9,48.5c-0.101-1.4-0.9-2.1-1.9-2.1
		c-1.1,0-2.1,0.699-2.3,2.1H205.9z"/>
	<path fill="#FFFFFF" d="M211.3,50.7c0,0,0.9,1.1,2.4,1.1c1,0,1.899-0.7,1.899-1.7c0-2.3-4.6-1.899-4.6-4.8
		c0-1.3,1.1-2.399,2.9-2.399c0.899,0,2.5,0.399,2.5,1.6v0.7h-0.9v-0.4c0-0.6-0.8-1-1.6-1c-1.2,0-1.9,0.7-1.9,1.5
		c0,2.2,4.6,1.601,4.6,4.7c0,1.4-1.1,2.6-2.8,2.6c-1.899,0-3-1.3-3-1.3L211.3,50.7z"/>
	<path fill="#FFFFFF" d="M223.9,45.6c2,0,3.6,1.5,3.6,3.5S225.9,52.7,224,52.7c-2,0-3.6-1.5-3.6-3.601
		C220.4,47.1,222,45.6,223.9,45.6 M223.9,51.9c1.399,0,2.6-1.2,2.6-2.7s-1.2-2.7-2.6-2.7c-1.4,0-2.601,1.1-2.601,2.7
		C221.3,50.7,222.5,51.9,223.9,51.9"/>
	<path fill="#FFFFFF" d="M231.7,44.2c0-0.2-0.101-0.3-0.3-0.3H230.8V43.1h1c0.601,0,0.8,0.2,0.8,0.801v7.5
		c0,0.199,0.101,0.3,0.301,0.3h0.6v0.8h-0.9c-0.6,0-0.8-0.2-0.8-0.8v-7.5H231.7z"/>
	<path fill="#FFFFFF" d="M237.6,46.9c0-0.2-0.1-0.301-0.3-0.301h-0.6v-0.8h0.899c0.601,0,0.801,0.2,0.801,0.8v3.2
		c0,1.101,0.199,2,1.5,2c1.5,0,2.5-1.3,2.5-2.8v-3.2h0.899V51.4c0,0.199,0.101,0.3,0.3,0.3h0.601v0.8h-0.9c-0.6,0-0.8-0.2-0.8-0.8
		v-0.3c0-0.301,0-0.5,0-0.5l0,0c-0.3,0.699-1.1,1.699-2.6,1.699c-1.601,0-2.301-0.899-2.301-2.6V46.9L237.6,46.9z"/>
	<path fill="#FFFFFF" d="M248.5,46.6h-0.9v-0.8h0.9V43.9h0.9V45.8h1.699v0.8H249.4V50c0,1.6,1,1.8,1.5,1.8c0.199,0,0.3,0,0.3,0v0.8
		c0,0-0.2,0-0.4,0c-0.8,0-2.3-0.3-2.3-2.5V46.6z"/>
	<path fill="#FFFFFF" d="M255.6,46.9c0-0.2-0.1-0.301-0.3-0.301h-0.6v-0.8h0.899c0.601,0,0.801,0.2,0.801,0.8V51.4
		c0,0.199,0.1,0.3,0.3,0.3h0.6v0.8H256.4c-0.601,0-0.801-0.2-0.801-0.8V46.9L255.6,46.9z M255.6,43.1h0.9V44.2h-0.9V43.1z"/>
	<path fill="#FFFFFF" d="M264.5,45.6c2,0,3.6,1.5,3.6,3.5s-1.6,3.601-3.5,3.601c-2,0-3.6-1.5-3.6-3.601
		C260.9,47.1,262.5,45.6,264.5,45.6 M264.5,51.9c1.4,0,2.6-1.2,2.6-2.7s-1.199-2.7-2.6-2.7s-2.6,1.1-2.6,2.7
		C261.9,50.7,263,51.9,264.5,51.9"/>
	<path fill="#FFFFFF" d="M272.4,46.9c0-0.2-0.101-0.301-0.301-0.301h-0.6v-0.8h0.9c0.6,0,0.8,0.2,0.8,0.7v0.3c0,0.3,0,0.5,0,0.5l0,0
		c0.2-0.6,1.1-1.7,2.7-1.7c1.699,0,2.3,0.9,2.3,2.601v3.2c0,0.199,0.1,0.3,0.3,0.3h0.6v0.8H278.2c-0.601,0-0.8-0.2-0.8-0.8v-3.2
		c0-1.1-0.2-2-1.5-2c-1.101,0-2.101,0.8-2.4,1.9c-0.1,0.3-0.1,0.6-0.1,0.899v3.2h-0.9v-5.6H272.4z"/>
</g>
<g>
	<g>
		<g>
			<defs>
				<path id="SVGID_1_" d="M20.4,12.4c-0.9,1.8-2,4.3-3,7.6c-0.5,1.8-3.2,9.4-5.3,16.5C10.2,42.6,8.6,49,5.2,50.7
					c7.6-0.4,10.3-19.2,15.6-30.8c0.6-1.4,1.2-2.5,1.8-3.4c-0.5-2-1-3.7-1.5-5.1C20.9,11.7,20.6,12,20.4,12.4"/>
			</defs>
			<clipPath id="SVGID_2_">
				<use xlink:href="#SVGID_1_"  overflow="visible"/>
			</clipPath>
			
				<linearGradient id="SVGID_3_" gradientUnits="userSpaceOnUse" x1="-509.4111" y1="-341.8311" x2="-509.1126" y2="-341.8311" gradientTransform="matrix(158.2988 0 0 158.2988 80650.2656 54142.4297)">
				<stop  offset="0" style="stop-color:#D41C56"/>
				<stop  offset="0.3744" style="stop-color:#D41C56"/>
				<stop  offset="0.7488" style="stop-color:#9E3594"/>
				<stop  offset="1" style="stop-color:#9E3594"/>
			</linearGradient>
			<rect x="5.2" y="11.4" clip-path="url(#SVGID_2_)" fill="url(#SVGID_3_)" width="17.4" height="39.3"/>
		</g>
	</g>
	<g>
		<g>
			<defs>
				<path id="SVGID_4_" d="M60.1,26.3c-3.2,4.9-4.2,10-5.7,13.601c-2.2,5.399-4.8,7.5-8.2,2.899c-0.7,1.5-1.5,2.9-2.5,4.3
					c0.1,0.2,0.2,0.2,0.2,0.2c2.3,2.5,4.3,3.5,6,3.5c4.8-1.2,6.1-7.6,7.4-14.3c1.1-5.7,2.2-9.1,3.3-11.1
					C60.5,25.7,60.3,26,60.1,26.3"/>
			</defs>
			<clipPath id="SVGID_5_">
				<use xlink:href="#SVGID_4_"  overflow="visible"/>
			</clipPath>
			
				<linearGradient id="SVGID_6_" gradientUnits="userSpaceOnUse" x1="-509.4116" y1="-341.936" x2="-509.1131" y2="-341.936" gradientTransform="matrix(158.2988 0 0 158.2988 80650.2656 54166.1797)">
				<stop  offset="0" style="stop-color:#067F98"/>
				<stop  offset="0.9261" style="stop-color:#067F98"/>
				<stop  offset="1" style="stop-color:#0BBBCD"/>
			</linearGradient>
			<rect x="43.7" y="25.4" clip-path="url(#SVGID_5_)" fill="url(#SVGID_6_)" width="17" height="25.5"/>
		</g>
	</g>
	<g>
		<g>
			<defs>
				<path id="SVGID_7_" d="M5.3,17.4C0.7,30.2,0.1,42.8,0.1,42.8s-0.8,6,2.7,7.5c0.9,0.4,1.7,0.5,2.5,0.5c3.4-1.7,5-8.1,6.8-14.2
					c2.1-7.1,4.8-14.7,5.3-16.5c1-3.3,2.1-5.8,3-7.6c-0.4,0.5-0.8,1.1-1.1,1.8c0,0-2.8,4.3-5.8,14C12.1,32.8,10.1,38,8.4,42
					c-2.2,5-5.5,3.6-5.3-1.1c0,0,1.6-13.7,6.4-23.7c4.1-8.5,7.9-16.2,11.7-5.7l0,0c1.1-1.4,2.3-2.3,3.4-2.9c0,0,0,0,0-0.1
					c-2.5-5.9-4.9-8.1-7-8.1C14.3,0.3,10,4.6,5.3,17.4"/>
			</defs>
			<clipPath id="SVGID_8_">
				<use xlink:href="#SVGID_7_"  overflow="visible"/>
			</clipPath>
			
				<linearGradient id="SVGID_9_" gradientUnits="userSpaceOnUse" x1="-504.9351" y1="-349.8008" x2="-504.6367" y2="-349.8008" gradientTransform="matrix(-52.2135 164.9285 -164.9285 -52.2135 -84037.1797 65015.5625)">
				<stop  offset="0" style="stop-color:#F99B1C"/>
				<stop  offset="1" style="stop-color:#EF3F32"/>
			</linearGradient>
			<polygon clip-path="url(#SVGID_8_)" fill="url(#SVGID_9_)" points="39,4.9 22.2,58 -15.2,46.2 1.6,-6.9 			"/>
		</g>
	</g>
	<g>
		<g>
			<defs>
				<path id="SVGID_10_" d="M49.7,18c-2.2,4.7-4,11.6-6.1,19.9c0,0.1-0.1,0.199-0.1,0.3c0.9,1.899,1.8,3.399,2.6,4.5
					c0.1-0.2,0.2-0.3,0.2-0.5c0.2-1.601,1-7.101,1.9-13.5c1-6.2,2.1-12.7,4.6-16C51.8,14.1,50.7,15.8,49.7,18"/>
			</defs>
			<clipPath id="SVGID_11_">
				<use xlink:href="#SVGID_10_"  overflow="visible"/>
			</clipPath>
			
				<linearGradient id="SVGID_12_" gradientUnits="userSpaceOnUse" x1="-521.8926" y1="-344.4204" x2="-521.5946" y2="-344.4204" gradientTransform="matrix(16.0232 -71.2756 71.2756 16.0232 32956.9688 -31640.6094)">
				<stop  offset="0" style="stop-color:#6FB248"/>
				<stop  offset="0.1379" style="stop-color:#6FB248"/>
				<stop  offset="1" style="stop-color:#BED630"/>
			</linearGradient>
			<polygon clip-path="url(#SVGID_11_)" fill="url(#SVGID_12_)" points="37.2,41.4 44,10.9 59.4,14.3 52.5,44.8 			"/>
		</g>
	</g>
	<g>
		<g>
			<defs>
				<path id="SVGID_13_" d="M60.7,25.4c-1.1,2-2.2,5.4-3.3,11.1c-1.3,6.7-2.6,13.2-7.4,14.3c6.3-0.2,9.7-14.1,12.5-20.8
					c-0.4-1.9-0.8-3.7-1.3-5.4C61,24.9,60.9,25.1,60.7,25.4"/>
			</defs>
			<clipPath id="SVGID_14_">
				<use xlink:href="#SVGID_13_"  overflow="visible"/>
			</clipPath>
			
				<linearGradient id="SVGID_15_" gradientUnits="userSpaceOnUse" x1="-509.5742" y1="-326.3828" x2="-509.2759" y2="-326.3828" gradientTransform="matrix(42.0465 0 0 42.0465 21475.7793 13760.9951)">
				<stop  offset="0" style="stop-color:#0E7D96"/>
				<stop  offset="0.1949" style="stop-color:#0F8199"/>
				<stop  offset="0.4442" style="stop-color:#138BA0"/>
				<stop  offset="0.7222" style="stop-color:#1A9EAD"/>
				<stop  offset="0.7241" style="stop-color:#1A9EAD"/>
				<stop  offset="1" style="stop-color:#1A9EAD"/>
			</linearGradient>
			<rect x="49.9" y="24.7" clip-path="url(#SVGID_14_)" fill="url(#SVGID_15_)" width="12.5" height="26.1"/>
		</g>
	</g>
	<g>
		<g>
			<defs>
				<path id="SVGID_16_" d="M63.7,27.6C63.3,28.2,62.9,29,62.5,30c1.9,8.5,3.7,18.6,8,20.5C67,47.8,65.9,31,65.7,27.4
					c-0.1-0.301-0.1-0.601-0.2-0.9c-0.1,0-0.1,0-0.2,0C64.8,26.5,64.2,26.9,63.7,27.6"/>
			</defs>
			<clipPath id="SVGID_17_">
				<use xlink:href="#SVGID_16_"  overflow="visible"/>
			</clipPath>
			
				<linearGradient id="SVGID_18_" gradientUnits="userSpaceOnUse" x1="-499.001" y1="-343.3359" x2="-498.7022" y2="-343.3359" gradientTransform="matrix(26.5515 71.91 -71.91 26.5515 -11377.3672 45027.5195)">
				<stop  offset="0" style="stop-color:#087B71"/>
				<stop  offset="0.1281" style="stop-color:#05976B"/>
				<stop  offset="0.2623" style="stop-color:#05976D"/>
				<stop  offset="0.3975" style="stop-color:#059674"/>
				<stop  offset="0.5329" style="stop-color:#04947D"/>
				<stop  offset="0.6355" style="stop-color:#039187"/>
				<stop  offset="0.7566" style="stop-color:#039188"/>
				<stop  offset="0.8428" style="stop-color:#038F8C"/>
				<stop  offset="0.9182" style="stop-color:#058B92"/>
				<stop  offset="0.987" style="stop-color:#06869B"/>
				<stop  offset="1" style="stop-color:#07859D"/>
			</linearGradient>
			<polygon clip-path="url(#SVGID_17_)" fill="url(#SVGID_18_)" points="69.5,23.9 78.3,47.6 63.4,53.1 54.7,29.4 			"/>
		</g>
	</g>
	<g>
		<g>
			<defs>
				<path id="SVGID_19_" d="M24.5,8.5c0.6,1.4,1.1,2.9,1.7,4.7c3.9-1,7,7.2,9.8,16.5c2,6.6,4,11,5.5,13.8c0.8-1.1,1.5-2.8,2.1-5.2
					c-0.6-1.399-1.3-2.899-2-4.7C38.3,24.9,36.5,18,34,13.5c-2-3.6-4.4-5.6-7-5.6C26.2,7.8,25.3,8,24.5,8.5"/>
			</defs>
			<clipPath id="SVGID_20_">
				<use xlink:href="#SVGID_19_"  overflow="visible"/>
			</clipPath>
			
				<linearGradient id="SVGID_21_" gradientUnits="userSpaceOnUse" x1="-509.4111" y1="-341.751" x2="-509.1136" y2="-341.751" gradientTransform="matrix(158.2988 0 0 158.2988 80650.2656 54124.3047)">
				<stop  offset="0" style="stop-color:#D41C56"/>
				<stop  offset="0.2759" style="stop-color:#D41C56"/>
				<stop  offset="0.5172" style="stop-color:#9E3594"/>
				<stop  offset="0.6059" style="stop-color:#555DA1"/>
				<stop  offset="0.6946" style="stop-color:#067F98"/>
				<stop  offset="1" style="stop-color:#067F98"/>
			</linearGradient>
			<rect x="24.5" y="7.8" clip-path="url(#SVGID_20_)" fill="url(#SVGID_21_)" width="19.1" height="35.601"/>
		</g>
	</g>
	<g>
		<g>
			<defs>
				<path id="SVGID_22_" d="M64.3,22.5c0.4,1.2,0.8,2.6,1.2,4.1c3.6,0.5,7.6,15.4,6.8,18c-0.9,3.101-4-3.5-5.7-12.899
					c-0.3-1.5-0.6-2.9-0.9-4.3C65.9,31,67,47.8,70.4,50.5c0.5,0.2,1,0.3,1.5,0.3c4,0,3.7-8.2,1.7-15.6c-1.8-6.601-4.8-12.8-8.5-12.8
					C64.9,22.4,64.6,22.4,64.3,22.5"/>
			</defs>
			<clipPath id="SVGID_23_">
				<use xlink:href="#SVGID_22_"  overflow="visible"/>
			</clipPath>
			
				<linearGradient id="SVGID_24_" gradientUnits="userSpaceOnUse" x1="-533.5415" y1="-312.1221" x2="-533.2434" y2="-312.1221" gradientTransform="matrix(17.789 -11.2246 11.2246 17.789 13063.1592 -398.8365)">
				<stop  offset="0" style="stop-color:#077496"/>
				<stop  offset="0.234" style="stop-color:#0D85A3"/>
				<stop  offset="0.7534" style="stop-color:#1CACC2"/>
				<stop  offset="1" style="stop-color:#1DBFD1"/>
			</linearGradient>
			<polygon clip-path="url(#SVGID_23_)" fill="url(#SVGID_24_)" points="51.5,30.5 72.7,17.1 88.8,42.7 67.6,56.1 			"/>
		</g>
	</g>
	<g>
		<g>
			<defs>
				<path id="SVGID_25_" d="M22.6,16.5c0.2,0.6,0.3,1.3,0.5,2c2.6,11.7,6,23,10,28.6c-4.9-8.5-6.5-29.5-6.8-33.2
					c-0.1-0.3-0.2-0.5-0.2-0.8C25.1,13.5,23.9,14.5,22.6,16.5"/>
			</defs>
			<clipPath id="SVGID_26_">
				<use xlink:href="#SVGID_25_"  overflow="visible"/>
			</clipPath>
			
				<linearGradient id="SVGID_27_" gradientUnits="userSpaceOnUse" x1="-488.5352" y1="-329.7949" x2="-488.237" y2="-329.7949" gradientTransform="matrix(23.8276 23.6204 -23.6204 23.8276 3869.062 19418.2852)">
				<stop  offset="0" style="stop-color:#CA982C"/>
				<stop  offset="0.1626" style="stop-color:#EFCD1A"/>
				<stop  offset="1" style="stop-color:#BBD532"/>
			</linearGradient>
			<polygon clip-path="url(#SVGID_26_)" fill="url(#SVGID_27_)" points="27.9,7.9 50.2,30 27.9,52.4 5.6,30.3 			"/>
		</g>
	</g>
	<g>
		<g>
			<defs>
				<path id="SVGID_28_" d="M33.2,47.2C36.4,51.7,40,52.6,43.7,47.1c-0.4-0.5-1.2-1.6-2.3-3.699c-3,4.199-7.1-0.101-9.1-7
					C31,31.9,29.4,26.4,28,20.3c-0.5-2.4-1.1-4.5-1.7-6.4C26.7,17.7,28.3,38.6,33.2,47.2"/>
			</defs>
			<clipPath id="SVGID_29_">
				<use xlink:href="#SVGID_28_"  overflow="visible"/>
			</clipPath>
			
				<linearGradient id="SVGID_30_" gradientUnits="userSpaceOnUse" x1="-508.7754" y1="-331.9639" x2="-508.4771" y2="-331.9639" gradientTransform="matrix(57.9641 0 0 57.9641 29517.0742 19275.1875)">
				<stop  offset="0" style="stop-color:#CFC54C"/>
				<stop  offset="0.2266" style="stop-color:#579040"/>
				<stop  offset="1" style="stop-color:#579040"/>
			</linearGradient>
			<rect x="26.4" y="13.9" clip-path="url(#SVGID_29_)" fill="url(#SVGID_30_)" width="17.3" height="38.6"/>
		</g>
	</g>
	<g>
		<g>
			<defs>
				<path id="SVGID_31_" d="M53,12.9c-2.5,3.3-3.7,9.8-4.6,16c-1,6.3-1.1,7.899-2.2,13.899c0-0.1,0.3-0.6,0.3-0.7
					C51.8,30.6,51.3,17.2,57,17.4c1.9,0.1,3.1,3.1,4.2,7.3c1.1-1.3,2.1-2,3.1-2.2c-1.3-4.1-2.5-6.6-2.5-6.6c-1.6-3.4-3.3-5-5.2-5
					C55.4,10.9,54.2,11.6,53,12.9"/>
			</defs>
			<clipPath id="SVGID_32_">
				<use xlink:href="#SVGID_31_"  overflow="visible"/>
			</clipPath>
			
				<linearGradient id="SVGID_33_" gradientUnits="userSpaceOnUse" x1="-517.2993" y1="-337.0093" x2="-517.0012" y2="-337.0093" gradientTransform="matrix(57.7388 -42.2681 42.2681 57.7388 44161.4922 -2374.905)">
				<stop  offset="0" style="stop-color:#0B7D53"/>
				<stop  offset="0.1098" style="stop-color:#40934E"/>
				<stop  offset="0.2276" style="stop-color:#5FA947"/>
				<stop  offset="0.3005" style="stop-color:#6BB445"/>
				<stop  offset="0.3917" style="stop-color:#81BB41"/>
				<stop  offset="0.5794" style="stop-color:#B5D334"/>
				<stop  offset="0.5813" style="stop-color:#B6D433"/>
				<stop  offset="0.7837" style="stop-color:#B4D334"/>
				<stop  offset="0.87" style="stop-color:#ADD136"/>
				<stop  offset="0.9342" style="stop-color:#A1CD3A"/>
				<stop  offset="0.9872" style="stop-color:#8FC73E"/>
				<stop  offset="1" style="stop-color:#8AC640"/>
			</linearGradient>
			<polygon clip-path="url(#SVGID_32_)" fill="url(#SVGID_33_)" points="31,22.1 58,2.3 79.5,31.7 52.5,51.5 			"/>
		</g>
	</g>
	<path fill="#058D8B" d="M65.5,26.6c-0.4-1.5-0.8-2.8-1.2-4.1c-1,0.2-2,0.9-3.1,2.2c0.4,1.6,0.8,3.5,1.3,5.399
		c0.4-1,0.8-1.8,1.2-2.399C64.3,26.8,64.9,26.5,65.5,26.6"/>
	<path fill="#C21E65" d="M26.2,13.2c-0.6-1.8-1.1-3.4-1.7-4.7c-1.1,0.6-2.2,1.5-3.4,2.9c0.5,1.4,1,3.1,1.5,5.1
		C23.9,14.5,25.1,13.5,26.2,13.2"/>
	<path fill="#086F81" d="M43.6,38.3c-0.6,2.4-1.3,4.101-2.1,5.2c1.1,2.1,1.9,3.2,2.3,3.7c0.9-1.4,1.8-2.8,2.5-4.3
		C45.4,41.7,44.5,40.2,43.6,38.3"/>
</g>
</svg>
